<?xml version="1.0" encoding="UTF-8" standalone="no"?>
<!DOCTYPE svg PUBLIC "-//W3C//DTD SVG 1.1//EN"
 "http://www.w3.org/Graphics/SVG/1.1/DTD/svg11.dtd">
<!-- Generated by graphviz version 2.42.3 (20191010.1750)
 -->
<!-- Title: snakemake_dag Pages: 1 -->
<svg width="874pt" height="476pt"
 viewBox="0.00 0.00 873.50 476.00" xmlns="http://www.w3.org/2000/svg" xmlns:xlink="http://www.w3.org/1999/xlink">
<g id="graph0" class="graph" transform="scale(1 1) rotate(0) translate(4 472)">
<title>snakemake_dag</title>
<polygon fill="white" stroke="transparent" points="-4,4 -4,-472 869.5,-472 869.5,4 -4,4"/>
<!-- 0 -->
<g id="node1" class="node">
<title>0</title>
<path fill="none" stroke="#56a2d8" stroke-width="2" stroke-dasharray="5,2" d="M432,-36C432,-36 402,-36 402,-36 396,-36 390,-30 390,-24 390,-24 390,-12 390,-12 390,-6 396,0 402,0 402,0 432,0 432,0 438,0 444,-6 444,-12 444,-12 444,-24 444,-24 444,-30 438,-36 432,-36"/>
<text text-anchor="middle" x="417" y="-15.5" font-family="sans" font-size="10.00">all</text>
</g>
<!-- 1 -->
<g id="node2" class="node">
<title>1</title>
<path fill="none" stroke="#c6d856" stroke-width="2" stroke-dasharray="5,2" d="M432,-108C432,-108 402,-108 402,-108 396,-108 390,-102 390,-96 390,-96 390,-84 390,-84 390,-78 396,-72 402,-72 402,-72 432,-72 432,-72 438,-72 444,-78 444,-84 444,-84 444,-96 444,-96 444,-102 438,-108 432,-108"/>
<text text-anchor="middle" x="417" y="-87.5" font-family="sans" font-size="10.00">plots</text>
</g>
<!-- 1&#45;&gt;0 -->
<g id="edge1" class="edge">
<title>1&#45;&gt;0</title>
<path fill="none" stroke="grey" stroke-width="2" d="M417,-71.7C417,-63.98 417,-54.71 417,-46.11"/>
<polygon fill="grey" stroke="grey" stroke-width="2" points="420.5,-46.1 417,-36.1 413.5,-46.1 420.5,-46.1"/>
</g>
<!-- 2 -->
<g id="node3" class="node">
<title>2</title>
<path fill="none" stroke="#56d8c9" stroke-width="2" stroke-dasharray="5,2" d="M455,-180C455,-180 379,-180 379,-180 373,-180 367,-174 367,-168 367,-168 367,-156 367,-156 367,-150 373,-144 379,-144 379,-144 455,-144 455,-144 461,-144 467,-150 467,-156 467,-156 467,-168 467,-168 467,-174 461,-180 455,-180"/>
<text text-anchor="middle" x="417" y="-165" font-family="sans" font-size="10.00">gather_MAPS</text>
<text text-anchor="middle" x="417" y="-154" font-family="sans" font-size="10.00">run_location: gcp</text>
</g>
<!-- 2&#45;&gt;1 -->
<g id="edge2" class="edge">
<title>2&#45;&gt;1</title>
<path fill="none" stroke="grey" stroke-width="2" d="M417,-143.7C417,-135.98 417,-126.71 417,-118.11"/>
<polygon fill="grey" stroke="grey" stroke-width="2" points="420.5,-118.1 417,-108.1 413.5,-118.1 420.5,-118.1"/>
</g>
<!-- 3 -->
<g id="node4" class="node">
<title>3</title>
<path fill="none" stroke="#56c9d8" stroke-width="2" stroke-dasharray="5,2" d="M559.5,-252C559.5,-252 514.5,-252 514.5,-252 508.5,-252 502.5,-246 502.5,-240 502.5,-240 502.5,-228 502.5,-228 502.5,-222 508.5,-216 514.5,-216 514.5,-216 559.5,-216 559.5,-216 565.5,-216 571.5,-222 571.5,-228 571.5,-228 571.5,-240 571.5,-240 571.5,-246 565.5,-252 559.5,-252"/>
<text text-anchor="middle" x="537" y="-231.5" font-family="sans" font-size="10.00">MAPS_GCP</text>
</g>
<!-- 3&#45;&gt;2 -->
<g id="edge3" class="edge">
<title>3&#45;&gt;2</title>
<path fill="none" stroke="grey" stroke-width="2" d="M507.64,-215.88C491.95,-206.72 472.44,-195.34 455.55,-185.48"/>
<polygon fill="grey" stroke="grey" stroke-width="2" points="456.87,-182.21 446.47,-180.19 453.34,-188.25 456.87,-182.21"/>
</g>
<!-- 4 -->
<g id="node5" class="node">
<title>4</title>
<path fill="none" stroke="#d8c356" stroke-width="2" stroke-dasharray="5,2" d="M672,-324C672,-324 478,-324 478,-324 472,-324 466,-318 466,-312 466,-312 466,-300 466,-300 466,-294 472,-288 478,-288 478,-288 672,-288 672,-288 678,-288 684,-294 684,-300 684,-300 684,-312 684,-312 684,-318 678,-324 672,-324"/>
<text text-anchor="middle" x="575" y="-309" font-family="sans" font-size="10.00">convert_bedfile</text>
<text text-anchor="middle" x="575" y="-298" font-family="sans" font-size="10.00">variant_subset: PolyADB_40nt&#45;conserved</text>
</g>
<!-- 4&#45;&gt;3 -->
<g id="edge7" class="edge">
<title>4&#45;&gt;3</title>
<path fill="none" stroke="grey" stroke-width="2" d="M565.61,-287.7C561.24,-279.64 555.94,-269.89 551.1,-260.98"/>
<polygon fill="grey" stroke="grey" stroke-width="2" points="554.13,-259.22 546.29,-252.1 547.98,-262.56 554.13,-259.22"/>
</g>
<!-- 5 -->
<g id="node6" class="node">
<title>5</title>
<path fill="none" stroke="#59d856" stroke-width="2" stroke-dasharray="5,2" d="M376,-396C376,-396 296,-396 296,-396 290,-396 284,-390 284,-384 284,-384 284,-372 284,-372 284,-366 290,-360 296,-360 296,-360 376,-360 376,-360 382,-360 388,-366 388,-372 388,-372 388,-384 388,-384 388,-390 382,-396 376,-396"/>
<text text-anchor="middle" x="336" y="-381" font-family="sans" font-size="10.00">extract_PolyA_DB</text>
<text text-anchor="middle" x="336" y="-370" font-family="sans" font-size="10.00">filter: conserved</text>
</g>
<!-- 5&#45;&gt;4 -->
<g id="edge8" class="edge">
<title>5&#45;&gt;4</title>
<path fill="none" stroke="grey" stroke-width="2" d="M388.15,-361.72C422.95,-351.53 469.06,-338.03 506.77,-326.98"/>
<polygon fill="grey" stroke="grey" stroke-width="2" points="508.05,-330.26 516.67,-324.09 506.08,-323.54 508.05,-330.26"/>
</g>
<!-- 9 -->
<g id="node10" class="node">
<title>9</title>
<path fill="none" stroke="#d8c356" stroke-width="2" stroke-dasharray="5,2" d="M436,-324C436,-324 236,-324 236,-324 230,-324 224,-318 224,-312 224,-312 224,-300 224,-300 224,-294 230,-288 236,-288 236,-288 436,-288 436,-288 442,-288 448,-294 448,-300 448,-300 448,-312 448,-312 448,-318 442,-324 436,-324"/>
<text text-anchor="middle" x="336" y="-309" font-family="sans" font-size="10.00">convert_bedfile</text>
<text text-anchor="middle" x="336" y="-298" font-family="sans" font-size="10.00">variant_subset: PolyADB_100nt&#45;conserved</text>
</g>
<!-- 5&#45;&gt;9 -->
<g id="edge12" class="edge">
<title>5&#45;&gt;9</title>
<path fill="none" stroke="grey" stroke-width="2" d="M336,-359.7C336,-351.98 336,-342.71 336,-334.11"/>
<polygon fill="grey" stroke="grey" stroke-width="2" points="339.5,-334.1 336,-324.1 332.5,-334.1 339.5,-334.1"/>
</g>
<!-- 6 -->
<g id="node7" class="node">
<title>6</title>
<path fill="none" stroke="#d85656" stroke-width="2" stroke-dasharray="5,2" d="M382,-468C382,-468 290,-468 290,-468 284,-468 278,-462 278,-456 278,-456 278,-444 278,-444 278,-438 284,-432 290,-432 290,-432 382,-432 382,-432 388,-432 394,-438 394,-444 394,-444 394,-456 394,-456 394,-462 388,-468 382,-468"/>
<text text-anchor="middle" x="336" y="-447.5" font-family="sans" font-size="10.00">download_PolyA_DB</text>
</g>
<!-- 6&#45;&gt;5 -->
<g id="edge9" class="edge">
<title>6&#45;&gt;5</title>
<path fill="none" stroke="grey" stroke-width="2" d="M336,-431.7C336,-423.98 336,-414.71 336,-406.11"/>
<polygon fill="grey" stroke="grey" stroke-width="2" points="339.5,-406.1 336,-396.1 332.5,-406.1 339.5,-406.1"/>
</g>
<!-- 12 -->
<g id="node13" class="node">
<title>12</title>
<path fill="none" stroke="#59d856" stroke-width="2" stroke-dasharray="5,2" d="M253,-396C253,-396 173,-396 173,-396 167,-396 161,-390 161,-384 161,-384 161,-372 161,-372 161,-366 167,-360 173,-360 173,-360 253,-360 253,-360 259,-360 265,-366 265,-372 265,-372 265,-384 265,-384 265,-390 259,-396 253,-396"/>
<text text-anchor="middle" x="213" y="-381" font-family="sans" font-size="10.00">extract_PolyA_DB</text>
<text text-anchor="middle" x="213" y="-370" font-family="sans" font-size="10.00">filter: all</text>
</g>
<!-- 6&#45;&gt;12 -->
<g id="edge15" class="edge">
<title>6&#45;&gt;12</title>
<path fill="none" stroke="grey" stroke-width="2" d="M305.91,-431.88C289.68,-422.64 269.46,-411.13 252.03,-401.21"/>
<polygon fill="grey" stroke="grey" stroke-width="2" points="253.63,-398.09 243.2,-396.19 250.16,-404.18 253.63,-398.09"/>
</g>
<!-- 7 -->
<g id="node8" class="node">
<title>7</title>
<path fill="none" stroke="#567bd8" stroke-width="2" stroke-dasharray="5,2" d="M247.5,-468C247.5,-468 178.5,-468 178.5,-468 172.5,-468 166.5,-462 166.5,-456 166.5,-456 166.5,-444 166.5,-444 166.5,-438 172.5,-432 178.5,-432 178.5,-432 247.5,-432 247.5,-432 253.5,-432 259.5,-438 259.5,-444 259.5,-444 259.5,-456 259.5,-456 259.5,-462 253.5,-468 247.5,-468"/>
<text text-anchor="middle" x="213" y="-453" font-family="sans" font-size="10.00">genomepy</text>
<text text-anchor="middle" x="213" y="-442" font-family="sans" font-size="10.00">assembly: hg19</text>
</g>
<!-- 7&#45;&gt;5 -->
<g id="edge10" class="edge">
<title>7&#45;&gt;5</title>
<path fill="none" stroke="grey" stroke-width="2" d="M243.09,-431.88C259.32,-422.64 279.54,-411.13 296.97,-401.21"/>
<polygon fill="grey" stroke="grey" stroke-width="2" points="298.84,-404.18 305.8,-396.19 295.37,-398.09 298.84,-404.18"/>
</g>
<!-- 7&#45;&gt;12 -->
<g id="edge16" class="edge">
<title>7&#45;&gt;12</title>
<path fill="none" stroke="grey" stroke-width="2" d="M213,-431.7C213,-423.98 213,-414.71 213,-406.11"/>
<polygon fill="grey" stroke="grey" stroke-width="2" points="216.5,-406.1 213,-396.1 209.5,-406.1 216.5,-406.1"/>
</g>
<!-- 8 -->
<g id="node9" class="node">
<title>8</title>
<path fill="none" stroke="#56c9d8" stroke-width="2" stroke-dasharray="5,2" d="M396.5,-252C396.5,-252 351.5,-252 351.5,-252 345.5,-252 339.5,-246 339.5,-240 339.5,-240 339.5,-228 339.5,-228 339.5,-222 345.5,-216 351.5,-216 351.5,-216 396.5,-216 396.5,-216 402.5,-216 408.5,-222 408.5,-228 408.5,-228 408.5,-240 408.5,-240 408.5,-246 402.5,-252 396.5,-252"/>
<text text-anchor="middle" x="374" y="-231.5" font-family="sans" font-size="10.00">MAPS_GCP</text>
</g>
<!-- 8&#45;&gt;2 -->
<g id="edge4" class="edge">
<title>8&#45;&gt;2</title>
<path fill="none" stroke="grey" stroke-width="2" d="M384.63,-215.7C389.63,-207.56 395.69,-197.69 401.21,-188.7"/>
<polygon fill="grey" stroke="grey" stroke-width="2" points="404.24,-190.46 406.49,-180.1 398.28,-186.79 404.24,-190.46"/>
</g>
<!-- 9&#45;&gt;8 -->
<g id="edge11" class="edge">
<title>9&#45;&gt;8</title>
<path fill="none" stroke="grey" stroke-width="2" d="M345.39,-287.7C349.76,-279.64 355.06,-269.89 359.9,-260.98"/>
<polygon fill="grey" stroke="grey" stroke-width="2" points="363.02,-262.56 364.71,-252.1 356.87,-259.22 363.02,-262.56"/>
</g>
<!-- 10 -->
<g id="node11" class="node">
<title>10</title>
<path fill="none" stroke="#56c9d8" stroke-width="2" stroke-dasharray="5,2" d="M236.5,-252C236.5,-252 191.5,-252 191.5,-252 185.5,-252 179.5,-246 179.5,-240 179.5,-240 179.5,-228 179.5,-228 179.5,-222 185.5,-216 191.5,-216 191.5,-216 236.5,-216 236.5,-216 242.5,-216 248.5,-222 248.5,-228 248.5,-228 248.5,-240 248.5,-240 248.5,-246 242.5,-252 236.5,-252"/>
<text text-anchor="middle" x="214" y="-231.5" font-family="sans" font-size="10.00">MAPS_GCP</text>
</g>
<!-- 10&#45;&gt;2 -->
<g id="edge5" class="edge">
<title>10&#45;&gt;2</title>
<path fill="none" stroke="grey" stroke-width="2" d="M248.9,-220.97C278.74,-210.68 322.33,-195.64 357.65,-183.47"/>
<polygon fill="grey" stroke="grey" stroke-width="2" points="359.06,-186.68 367.37,-180.11 356.78,-180.06 359.06,-186.68"/>
</g>
<!-- 11 -->
<g id="node12" class="node">
<title>11</title>
<path fill="none" stroke="#d8c356" stroke-width="2" stroke-dasharray="5,2" d="M194,-324C194,-324 12,-324 12,-324 6,-324 0,-318 0,-312 0,-312 0,-300 0,-300 0,-294 6,-288 12,-288 12,-288 194,-288 194,-288 200,-288 206,-294 206,-300 206,-300 206,-312 206,-312 206,-318 200,-324 194,-324"/>
<text text-anchor="middle" x="103" y="-309" font-family="sans" font-size="10.00">convert_bedfile</text>
<text text-anchor="middle" x="103" y="-298" font-family="sans" font-size="10.00">variant_subset: PolyADB_hexamers&#45;all</text>
</g>
<!-- 11&#45;&gt;10 -->
<g id="edge13" class="edge">
<title>11&#45;&gt;10</title>
<path fill="none" stroke="grey" stroke-width="2" d="M130.15,-287.88C144.53,-278.81 162.38,-267.55 177.91,-257.76"/>
<polygon fill="grey" stroke="grey" stroke-width="2" points="180.15,-260.48 186.74,-252.19 176.42,-254.56 180.15,-260.48"/>
</g>
<!-- 12&#45;&gt;11 -->
<g id="edge14" class="edge">
<title>12&#45;&gt;11</title>
<path fill="none" stroke="grey" stroke-width="2" d="M186.09,-359.88C171.84,-350.81 154.15,-339.55 138.76,-329.76"/>
<polygon fill="grey" stroke="grey" stroke-width="2" points="140.33,-326.61 130.01,-324.19 136.57,-332.51 140.33,-326.61"/>
</g>
<!-- 13 -->
<g id="node14" class="node">
<title>13</title>
<path fill="none" stroke="#56c9d8" stroke-width="2" stroke-dasharray="5,2" d="M745.5,-252C745.5,-252 700.5,-252 700.5,-252 694.5,-252 688.5,-246 688.5,-240 688.5,-240 688.5,-228 688.5,-228 688.5,-222 694.5,-216 700.5,-216 700.5,-216 745.5,-216 745.5,-216 751.5,-216 757.5,-222 757.5,-228 757.5,-228 757.5,-240 757.5,-240 757.5,-246 751.5,-252 745.5,-252"/>
<text text-anchor="middle" x="723" y="-231.5" font-family="sans" font-size="10.00">MAPS_GCP</text>
</g>
<!-- 13&#45;&gt;2 -->
<g id="edge6" class="edge">
<title>13&#45;&gt;2</title>
<path fill="none" stroke="grey" stroke-width="2" d="M688.49,-225.11C637.16,-213.36 539.97,-191.13 476.88,-176.7"/>
<polygon fill="grey" stroke="grey" stroke-width="2" points="477.58,-173.27 467.06,-174.45 476.02,-180.09 477.58,-173.27"/>
</g>
<!-- 14 -->
<g id="node15" class="node">
<title>14</title>
<path fill="none" stroke="#d8c356" stroke-width="2" stroke-dasharray="5,2" d="M853.5,-324C853.5,-324 714.5,-324 714.5,-324 708.5,-324 702.5,-318 702.5,-312 702.5,-312 702.5,-300 702.5,-300 702.5,-294 708.5,-288 714.5,-288 714.5,-288 853.5,-288 853.5,-288 859.5,-288 865.5,-294 865.5,-300 865.5,-300 865.5,-312 865.5,-312 865.5,-318 859.5,-324 853.5,-324"/>
<text text-anchor="middle" x="784" y="-309" font-family="sans" font-size="10.00">convert_bedfile</text>
<text text-anchor="middle" x="784" y="-298" font-family="sans" font-size="10.00">variant_subset: Gencode_UTR</text>
</g>
<!-- 14&#45;&gt;13 -->
<g id="edge17" class="edge">
<title>14&#45;&gt;13</title>
<path fill="none" stroke="grey" stroke-width="2" d="M768.92,-287.7C761.61,-279.3 752.69,-269.07 744.66,-259.86"/>
<polygon fill="grey" stroke="grey" stroke-width="2" points="747.11,-257.34 737.91,-252.1 741.84,-261.94 747.11,-257.34"/>
</g>
<!-- 15 -->
<g id="node16" class="node">
<title>15</title>
<path fill="none" stroke="#d8a456" stroke-width="2" stroke-dasharray="5,2" d="M834.5,-396C834.5,-396 733.5,-396 733.5,-396 727.5,-396 721.5,-390 721.5,-384 721.5,-384 721.5,-372 721.5,-372 721.5,-366 727.5,-360 733.5,-360 733.5,-360 834.5,-360 834.5,-360 840.5,-360 846.5,-366 846.5,-372 846.5,-372 846.5,-384 846.5,-384 846.5,-390 840.5,-396 834.5,-396"/>
<text text-anchor="middle" x="784" y="-375.5" font-family="sans" font-size="10.00">extract_Gencode_UTR</text>
</g>
<!-- 15&#45;&gt;14 -->
<g id="edge18" class="edge">
<title>15&#45;&gt;14</title>
<path fill="none" stroke="grey" stroke-width="2" d="M784,-359.7C784,-351.98 784,-342.71 784,-334.11"/>
<polygon fill="grey" stroke="grey" stroke-width="2" points="787.5,-334.1 784,-324.1 780.5,-334.1 787.5,-334.1"/>
</g>
<!-- 16 -->
<g id="node17" class="node">
<title>16</title>
<path fill="none" stroke="#9fd856" stroke-width="2" stroke-dasharray="5,2" d="M828,-468C828,-468 740,-468 740,-468 734,-468 728,-462 728,-456 728,-456 728,-444 728,-444 728,-438 734,-432 740,-432 740,-432 828,-432 828,-432 834,-432 840,-438 840,-444 840,-444 840,-456 840,-456 840,-462 834,-468 828,-468"/>
<text text-anchor="middle" x="784" y="-447.5" font-family="sans" font-size="10.00">download_Gencode</text>
</g>
<!-- 16&#45;&gt;15 -->
<g id="edge19" class="edge">
<title>16&#45;&gt;15</title>
<path fill="none" stroke="grey" stroke-width="2" d="M784,-431.7C784,-423.98 784,-414.71 784,-406.11"/>
<polygon fill="grey" stroke="grey" stroke-width="2" points="787.5,-406.1 784,-396.1 780.5,-406.1 787.5,-406.1"/>
</g>
</g>
</svg>
