<?xml version="1.0" encoding="UTF-8" standalone="no"?>
<!DOCTYPE svg PUBLIC "-//W3C//DTD SVG 1.1//EN"
 "http://www.w3.org/Graphics/SVG/1.1/DTD/svg11.dtd">
<!-- Generated by graphviz version 2.42.3 (20191010.1750)
 -->
<!-- Title: snakemake_dag Pages: 1 -->
<svg width="617pt" height="481pt"
 viewBox="0.00 0.00 616.50 481.00" xmlns="http://www.w3.org/2000/svg" xmlns:xlink="http://www.w3.org/1999/xlink">
<g id="graph0" class="graph" transform="scale(1 1) rotate(0) translate(4 477)">
<title>snakemake_dag</title>
<polygon fill="white" stroke="transparent" points="-4,4 -4,-477 612.5,-477 612.5,4 -4,4"/>
<!-- 0 -->
<g id="node1" class="node">
<title>0</title>
<path fill="none" stroke="#56d8a2" stroke-width="2" d="M288,-36C288,-36 258,-36 258,-36 252,-36 246,-30 246,-24 246,-24 246,-12 246,-12 246,-6 252,0 258,0 258,0 288,0 288,0 294,0 300,-6 300,-12 300,-12 300,-24 300,-24 300,-30 294,-36 288,-36"/>
<text text-anchor="middle" x="273" y="-15.5" font-family="sans" font-size="10.00">all</text>
</g>
<!-- 1 -->
<g id="node2" class="node">
<title>1</title>
<path fill="none" stroke="#56d87b" stroke-width="2" d="M141,-108C141,-108 111,-108 111,-108 105,-108 99,-102 99,-96 99,-96 99,-84 99,-84 99,-78 105,-72 111,-72 111,-72 141,-72 141,-72 147,-72 153,-78 153,-84 153,-84 153,-96 153,-96 153,-102 147,-108 141,-108"/>
<text text-anchor="middle" x="126" y="-87.5" font-family="sans" font-size="10.00">plots</text>
</g>
<!-- 1&#45;&gt;0 -->
<g id="edge1" class="edge">
<title>1&#45;&gt;0</title>
<path fill="none" stroke="grey" stroke-width="2" d="M153.31,-76C176.82,-64.8 210.95,-48.55 236.75,-36.26"/>
<polygon fill="grey" stroke="grey" stroke-width="2" points="238.32,-39.39 245.84,-31.93 235.31,-33.07 238.32,-39.39"/>
</g>
<!-- 2 -->
<g id="node3" class="node">
<title>2</title>
<path fill="none" stroke="#78d856" stroke-width="2" d="M116,-185C116,-185 12,-185 12,-185 6,-185 0,-179 0,-173 0,-173 0,-156 0,-156 0,-150 6,-144 12,-144 12,-144 116,-144 116,-144 122,-144 128,-150 128,-156 128,-156 128,-173 128,-173 128,-179 122,-185 116,-185"/>
<text text-anchor="middle" x="64" y="-173" font-family="sans" font-size="10.00">MAPS</text>
<text text-anchor="middle" x="64" y="-162" font-family="sans" font-size="10.00">run_location: gcp</text>
<text text-anchor="middle" x="64" y="-151" font-family="sans" font-size="10.00">variant_subset: overall</text>
</g>
<!-- 2&#45;&gt;1 -->
<g id="edge5" class="edge">
<title>2&#45;&gt;1</title>
<path fill="none" stroke="grey" stroke-width="2" d="M80.94,-143.69C88.26,-135.13 96.91,-125.02 104.66,-115.95"/>
<polygon fill="grey" stroke="grey" stroke-width="2" points="107.35,-118.19 111.19,-108.32 102.03,-113.64 107.35,-118.19"/>
</g>
<!-- 3 -->
<g id="node4" class="node">
<title>3</title>
<path fill="none" stroke="#9fd856" stroke-width="2" d="M345.5,-257C345.5,-257 244.5,-257 244.5,-257 238.5,-257 232.5,-251 232.5,-245 232.5,-245 232.5,-233 232.5,-233 232.5,-227 238.5,-221 244.5,-221 244.5,-221 345.5,-221 345.5,-221 351.5,-221 357.5,-227 357.5,-233 357.5,-233 357.5,-245 357.5,-245 357.5,-251 351.5,-257 345.5,-257"/>
<text text-anchor="middle" x="295" y="-242" font-family="sans" font-size="10.00">count_singletons_GCP</text>
<text text-anchor="middle" x="295" y="-231" font-family="sans" font-size="10.00">chr_subset: chr22</text>
</g>
<!-- 3&#45;&gt;2 -->
<g id="edge6" class="edge">
<title>3&#45;&gt;2</title>
<path fill="none" stroke="grey" stroke-width="2" d="M240.55,-220.91C209.35,-211.12 169.81,-198.71 136.06,-188.12"/>
<polygon fill="grey" stroke="grey" stroke-width="2" points="136.84,-184.69 126.25,-185.04 134.74,-191.37 136.84,-184.69"/>
</g>
<!-- 11 -->
<g id="node12" class="node">
<title>11</title>
<path fill="none" stroke="#78d856" stroke-width="2" d="M272,-185C272,-185 158,-185 158,-185 152,-185 146,-179 146,-173 146,-173 146,-156 146,-156 146,-150 152,-144 158,-144 158,-144 272,-144 272,-144 278,-144 284,-150 284,-156 284,-156 284,-173 284,-173 284,-179 278,-185 272,-185"/>
<text text-anchor="middle" x="215" y="-173" font-family="sans" font-size="10.00">MAPS</text>
<text text-anchor="middle" x="215" y="-162" font-family="sans" font-size="10.00">run_location: gcp</text>
<text text-anchor="middle" x="215" y="-151" font-family="sans" font-size="10.00">variant_subset: hexamer</text>
</g>
<!-- 3&#45;&gt;11 -->
<g id="edge14" class="edge">
<title>3&#45;&gt;11</title>
<path fill="none" stroke="grey" stroke-width="2" d="M276.04,-220.82C266.52,-212.19 254.78,-201.55 244.15,-191.92"/>
<polygon fill="grey" stroke="grey" stroke-width="2" points="246.41,-189.24 236.65,-185.12 241.71,-194.43 246.41,-189.24"/>
</g>
<!-- 13 -->
<g id="node14" class="node">
<title>13</title>
<path fill="none" stroke="#78d856" stroke-width="2" d="M435.5,-185C435.5,-185 314.5,-185 314.5,-185 308.5,-185 302.5,-179 302.5,-173 302.5,-173 302.5,-156 302.5,-156 302.5,-150 308.5,-144 314.5,-144 314.5,-144 435.5,-144 435.5,-144 441.5,-144 447.5,-150 447.5,-156 447.5,-156 447.5,-173 447.5,-173 447.5,-179 441.5,-185 435.5,-185"/>
<text text-anchor="middle" x="375" y="-173" font-family="sans" font-size="10.00">MAPS</text>
<text text-anchor="middle" x="375" y="-162" font-family="sans" font-size="10.00">run_location: gcp</text>
<text text-anchor="middle" x="375" y="-151" font-family="sans" font-size="10.00">variant_subset: conserved</text>
</g>
<!-- 3&#45;&gt;13 -->
<g id="edge16" class="edge">
<title>3&#45;&gt;13</title>
<path fill="none" stroke="grey" stroke-width="2" d="M313.96,-220.82C323.48,-212.19 335.22,-201.55 345.85,-191.92"/>
<polygon fill="grey" stroke="grey" stroke-width="2" points="348.29,-194.43 353.35,-185.12 343.59,-189.24 348.29,-194.43"/>
</g>
<!-- 15 -->
<g id="node16" class="node">
<title>15</title>
<path fill="none" stroke="#78d856" stroke-width="2" d="M596.5,-185C596.5,-185 477.5,-185 477.5,-185 471.5,-185 465.5,-179 465.5,-173 465.5,-173 465.5,-156 465.5,-156 465.5,-150 471.5,-144 477.5,-144 477.5,-144 596.5,-144 596.5,-144 602.5,-144 608.5,-150 608.5,-156 608.5,-156 608.5,-173 608.5,-173 608.5,-179 602.5,-185 596.5,-185"/>
<text text-anchor="middle" x="537" y="-173" font-family="sans" font-size="10.00">MAPS</text>
<text text-anchor="middle" x="537" y="-162" font-family="sans" font-size="10.00">run_location: gcp</text>
<text text-anchor="middle" x="537" y="-151" font-family="sans" font-size="10.00">variant_subset: worst_csq</text>
</g>
<!-- 3&#45;&gt;15 -->
<g id="edge18" class="edge">
<title>3&#45;&gt;15</title>
<path fill="none" stroke="grey" stroke-width="2" d="M352.04,-220.91C384.87,-211.08 426.51,-198.6 461.96,-187.98"/>
<polygon fill="grey" stroke="grey" stroke-width="2" points="463.21,-191.26 471.79,-185.04 461.2,-184.55 463.21,-191.26"/>
</g>
<!-- 4 -->
<g id="node5" class="node">
<title>4</title>
<path fill="none" stroke="#c6d856" stroke-width="2" stroke-dasharray="5,2" d="M344,-329C344,-329 246,-329 246,-329 240,-329 234,-323 234,-317 234,-317 234,-305 234,-305 234,-299 240,-293 246,-293 246,-293 344,-293 344,-293 350,-293 356,-299 356,-305 356,-305 356,-317 356,-317 356,-323 350,-329 344,-329"/>
<text text-anchor="middle" x="295" y="-308.5" font-family="sans" font-size="10.00">merge_UTR_intervals</text>
</g>
<!-- 4&#45;&gt;3 -->
<g id="edge7" class="edge">
<title>4&#45;&gt;3</title>
<path fill="none" stroke="grey" stroke-width="2" d="M295,-292.7C295,-284.98 295,-275.71 295,-267.11"/>
<polygon fill="grey" stroke="grey" stroke-width="2" points="298.5,-267.1 295,-257.1 291.5,-267.1 298.5,-267.1"/>
</g>
<!-- 5 -->
<g id="node6" class="node">
<title>5</title>
<path fill="none" stroke="#56c9d8" stroke-width="2" stroke-dasharray="5,2" d="M279.5,-401C279.5,-401 178.5,-401 178.5,-401 172.5,-401 166.5,-395 166.5,-389 166.5,-389 166.5,-377 166.5,-377 166.5,-371 172.5,-365 178.5,-365 178.5,-365 279.5,-365 279.5,-365 285.5,-365 291.5,-371 291.5,-377 291.5,-377 291.5,-389 291.5,-389 291.5,-395 285.5,-401 279.5,-401"/>
<text text-anchor="middle" x="229" y="-380.5" font-family="sans" font-size="10.00">extract_Gencode_UTR</text>
</g>
<!-- 5&#45;&gt;4 -->
<g id="edge8" class="edge">
<title>5&#45;&gt;4</title>
<path fill="none" stroke="grey" stroke-width="2" d="M245.31,-364.7C253.31,-356.22 263.07,-345.86 271.82,-336.58"/>
<polygon fill="grey" stroke="grey" stroke-width="2" points="274.56,-338.78 278.87,-329.1 269.47,-333.98 274.56,-338.78"/>
</g>
<!-- 6 -->
<g id="node7" class="node">
<title>6</title>
<path fill="none" stroke="#d8c356" stroke-width="2" stroke-dasharray="5,2" d="M273,-473C273,-473 185,-473 185,-473 179,-473 173,-467 173,-461 173,-461 173,-449 173,-449 173,-443 179,-437 185,-437 185,-437 273,-437 273,-437 279,-437 285,-443 285,-449 285,-449 285,-461 285,-461 285,-467 279,-473 273,-473"/>
<text text-anchor="middle" x="229" y="-452.5" font-family="sans" font-size="10.00">download_Gencode</text>
</g>
<!-- 6&#45;&gt;5 -->
<g id="edge10" class="edge">
<title>6&#45;&gt;5</title>
<path fill="none" stroke="grey" stroke-width="2" d="M229,-436.7C229,-428.98 229,-419.71 229,-411.11"/>
<polygon fill="grey" stroke="grey" stroke-width="2" points="232.5,-411.1 229,-401.1 225.5,-411.1 232.5,-411.1"/>
</g>
<!-- 7 -->
<g id="node8" class="node">
<title>7</title>
<path fill="none" stroke="#d87d56" stroke-width="2" stroke-dasharray="5,2" d="M402,-401C402,-401 322,-401 322,-401 316,-401 310,-395 310,-389 310,-389 310,-377 310,-377 310,-371 316,-365 322,-365 322,-365 402,-365 402,-365 408,-365 414,-371 414,-377 414,-377 414,-389 414,-389 414,-395 408,-401 402,-401"/>
<text text-anchor="middle" x="362" y="-380.5" font-family="sans" font-size="10.00">extract_PolyA_DB</text>
</g>
<!-- 7&#45;&gt;4 -->
<g id="edge9" class="edge">
<title>7&#45;&gt;4</title>
<path fill="none" stroke="grey" stroke-width="2" d="M345.44,-364.7C337.32,-356.22 327.41,-345.86 318.53,-336.58"/>
<polygon fill="grey" stroke="grey" stroke-width="2" points="320.81,-333.91 311.37,-329.1 315.76,-338.75 320.81,-333.91"/>
</g>
<!-- 8 -->
<g id="node9" class="node">
<title>8</title>
<path fill="none" stroke="#59d856" stroke-width="2" stroke-dasharray="5,2" d="M407,-473C407,-473 315,-473 315,-473 309,-473 303,-467 303,-461 303,-461 303,-449 303,-449 303,-443 309,-437 315,-437 315,-437 407,-437 407,-437 413,-437 419,-443 419,-449 419,-449 419,-461 419,-461 419,-467 413,-473 407,-473"/>
<text text-anchor="middle" x="361" y="-452.5" font-family="sans" font-size="10.00">download_PolyA_DB</text>
</g>
<!-- 8&#45;&gt;7 -->
<g id="edge11" class="edge">
<title>8&#45;&gt;7</title>
<path fill="none" stroke="grey" stroke-width="2" d="M361.25,-436.7C361.36,-428.98 361.49,-419.71 361.61,-411.11"/>
<polygon fill="grey" stroke="grey" stroke-width="2" points="365.11,-411.15 361.76,-401.1 358.11,-411.05 365.11,-411.15"/>
</g>
<!-- 9 -->
<g id="node10" class="node">
<title>9</title>
<path fill="none" stroke="#d85656" stroke-width="2" stroke-dasharray="5,2" d="M518.5,-473C518.5,-473 449.5,-473 449.5,-473 443.5,-473 437.5,-467 437.5,-461 437.5,-461 437.5,-449 437.5,-449 437.5,-443 443.5,-437 449.5,-437 449.5,-437 518.5,-437 518.5,-437 524.5,-437 530.5,-443 530.5,-449 530.5,-449 530.5,-461 530.5,-461 530.5,-467 524.5,-473 518.5,-473"/>
<text text-anchor="middle" x="484" y="-458" font-family="sans" font-size="10.00">genomepy</text>
<text text-anchor="middle" x="484" y="-447" font-family="sans" font-size="10.00">assembly: hg19</text>
</g>
<!-- 9&#45;&gt;7 -->
<g id="edge12" class="edge">
<title>9&#45;&gt;7</title>
<path fill="none" stroke="grey" stroke-width="2" d="M454.16,-436.88C438.06,-427.64 418,-416.13 400.71,-406.21"/>
<polygon fill="grey" stroke="grey" stroke-width="2" points="402.37,-403.13 391.96,-401.19 398.89,-409.2 402.37,-403.13"/>
</g>
<!-- 10 -->
<g id="node11" class="node">
<title>10</title>
<path fill="none" stroke="#56d87b" stroke-width="2" d="M252,-108C252,-108 222,-108 222,-108 216,-108 210,-102 210,-96 210,-96 210,-84 210,-84 210,-78 216,-72 222,-72 222,-72 252,-72 252,-72 258,-72 264,-78 264,-84 264,-84 264,-96 264,-96 264,-102 258,-108 252,-108"/>
<text text-anchor="middle" x="237" y="-87.5" font-family="sans" font-size="10.00">plots</text>
</g>
<!-- 10&#45;&gt;0 -->
<g id="edge2" class="edge">
<title>10&#45;&gt;0</title>
<path fill="none" stroke="grey" stroke-width="2" d="M245.9,-71.7C250,-63.73 254.95,-54.1 259.49,-45.26"/>
<polygon fill="grey" stroke="grey" stroke-width="2" points="262.74,-46.6 264.2,-36.1 256.52,-43.4 262.74,-46.6"/>
</g>
<!-- 11&#45;&gt;10 -->
<g id="edge13" class="edge">
<title>11&#45;&gt;10</title>
<path fill="none" stroke="grey" stroke-width="2" d="M221.01,-143.69C223.4,-135.82 226.19,-126.64 228.76,-118.17"/>
<polygon fill="grey" stroke="grey" stroke-width="2" points="232.19,-118.9 231.74,-108.32 225.49,-116.87 232.19,-118.9"/>
</g>
<!-- 12 -->
<g id="node13" class="node">
<title>12</title>
<path fill="none" stroke="#56d87b" stroke-width="2" d="M368,-108C368,-108 338,-108 338,-108 332,-108 326,-102 326,-96 326,-96 326,-84 326,-84 326,-78 332,-72 338,-72 338,-72 368,-72 368,-72 374,-72 380,-78 380,-84 380,-84 380,-96 380,-96 380,-102 374,-108 368,-108"/>
<text text-anchor="middle" x="353" y="-87.5" font-family="sans" font-size="10.00">plots</text>
</g>
<!-- 12&#45;&gt;0 -->
<g id="edge3" class="edge">
<title>12&#45;&gt;0</title>
<path fill="none" stroke="grey" stroke-width="2" d="M333.22,-71.7C323.25,-62.97 310.99,-52.24 300.14,-42.75"/>
<polygon fill="grey" stroke="grey" stroke-width="2" points="302.38,-40.06 292.55,-36.1 297.77,-45.32 302.38,-40.06"/>
</g>
<!-- 13&#45;&gt;12 -->
<g id="edge15" class="edge">
<title>13&#45;&gt;12</title>
<path fill="none" stroke="grey" stroke-width="2" d="M368.99,-143.69C366.6,-135.82 363.81,-126.64 361.24,-118.17"/>
<polygon fill="grey" stroke="grey" stroke-width="2" points="364.51,-116.87 358.26,-108.32 357.81,-118.9 364.51,-116.87"/>
</g>
<!-- 14 -->
<g id="node15" class="node">
<title>14</title>
<path fill="none" stroke="#56d87b" stroke-width="2" d="M507,-108C507,-108 477,-108 477,-108 471,-108 465,-102 465,-96 465,-96 465,-84 465,-84 465,-78 471,-72 477,-72 477,-72 507,-72 507,-72 513,-72 519,-78 519,-84 519,-84 519,-96 519,-96 519,-102 513,-108 507,-108"/>
<text text-anchor="middle" x="492" y="-87.5" font-family="sans" font-size="10.00">plots</text>
</g>
<!-- 14&#45;&gt;0 -->
<g id="edge4" class="edge">
<title>14&#45;&gt;0</title>
<path fill="none" stroke="grey" stroke-width="2" d="M464.71,-80.28C425.67,-67.8 353.77,-44.82 309.98,-30.82"/>
<polygon fill="grey" stroke="grey" stroke-width="2" points="310.88,-27.43 300.29,-27.72 308.75,-34.1 310.88,-27.43"/>
</g>
<!-- 15&#45;&gt;14 -->
<g id="edge17" class="edge">
<title>15&#45;&gt;14</title>
<path fill="none" stroke="grey" stroke-width="2" d="M524.7,-143.69C519.6,-135.47 513.62,-125.83 508.17,-117.05"/>
<polygon fill="grey" stroke="grey" stroke-width="2" points="511,-114.97 502.75,-108.32 505.05,-118.66 511,-114.97"/>
</g>
</g>
</svg>
