<?xml version="1.0" encoding="UTF-8" standalone="no"?>
<!DOCTYPE svg PUBLIC "-//W3C//DTD SVG 1.1//EN"
 "http://www.w3.org/Graphics/SVG/1.1/DTD/svg11.dtd">
<!-- Generated by graphviz version 2.42.3 (20191010.1750)
 -->
<!-- Title: snakemake_dag Pages: 1 -->
<svg width="994pt" height="404pt"
 viewBox="0.00 0.00 993.50 404.00" xmlns="http://www.w3.org/2000/svg" xmlns:xlink="http://www.w3.org/1999/xlink">
<g id="graph0" class="graph" transform="scale(1 1) rotate(0) translate(4 400)">
<title>snakemake_dag</title>
<polygon fill="white" stroke="transparent" points="-4,4 -4,-400 989.5,-400 989.5,4 -4,4"/>
<!-- 0 -->
<g id="node1" class="node">
<title>0</title>
<path fill="none" stroke="#56d892" stroke-width="2" d="M526,-36C526,-36 496,-36 496,-36 490,-36 484,-30 484,-24 484,-24 484,-12 484,-12 484,-6 490,0 496,0 496,0 526,0 526,0 532,0 538,-6 538,-12 538,-12 538,-24 538,-24 538,-30 532,-36 526,-36"/>
<text text-anchor="middle" x="511" y="-15.5" font-family="sans" font-size="10.00">all</text>
</g>
<!-- 1 -->
<g id="node2" class="node">
<title>1</title>
<path fill="none" stroke="#d8a456" stroke-width="2" d="M526,-108C526,-108 496,-108 496,-108 490,-108 484,-102 484,-96 484,-96 484,-84 484,-84 484,-78 490,-72 496,-72 496,-72 526,-72 526,-72 532,-72 538,-78 538,-84 538,-84 538,-96 538,-96 538,-102 532,-108 526,-108"/>
<text text-anchor="middle" x="511" y="-87.5" font-family="sans" font-size="10.00">plots</text>
</g>
<!-- 1&#45;&gt;0 -->
<g id="edge1" class="edge">
<title>1&#45;&gt;0</title>
<path fill="none" stroke="grey" stroke-width="2" d="M511,-71.7C511,-63.98 511,-54.71 511,-46.11"/>
<polygon fill="grey" stroke="grey" stroke-width="2" points="514.5,-46.1 511,-36.1 507.5,-46.1 514.5,-46.1"/>
</g>
<!-- 2 -->
<g id="node3" class="node">
<title>2</title>
<path fill="none" stroke="#56d86b" stroke-width="2" stroke-dasharray="5,2" d="M490,-180C490,-180 442,-180 442,-180 436,-180 430,-174 430,-168 430,-168 430,-156 430,-156 430,-150 436,-144 442,-144 442,-144 490,-144 490,-144 496,-144 502,-150 502,-156 502,-156 502,-168 502,-168 502,-174 496,-180 490,-180"/>
<text text-anchor="middle" x="466" y="-159.5" font-family="sans" font-size="10.00">MAPS_local</text>
</g>
<!-- 2&#45;&gt;1 -->
<g id="edge2" class="edge">
<title>2&#45;&gt;1</title>
<path fill="none" stroke="grey" stroke-width="2" d="M477.12,-143.7C482.36,-135.56 488.7,-125.69 494.48,-116.7"/>
<polygon fill="grey" stroke="grey" stroke-width="2" points="497.54,-118.41 500,-108.1 491.65,-114.62 497.54,-118.41"/>
</g>
<!-- 3 -->
<g id="node4" class="node">
<title>3</title>
<path fill="none" stroke="#68d856" stroke-width="2" stroke-dasharray="5,2" d="M430,-252C430,-252 236,-252 236,-252 230,-252 224,-246 224,-240 224,-240 224,-228 224,-228 224,-222 230,-216 236,-216 236,-216 430,-216 430,-216 436,-216 442,-222 442,-228 442,-228 442,-240 442,-240 442,-246 436,-252 430,-252"/>
<text text-anchor="middle" x="333" y="-237" font-family="sans" font-size="10.00">convert_bedfile</text>
<text text-anchor="middle" x="333" y="-226" font-family="sans" font-size="10.00">variant_subset: PolyADB_40nt&#45;conserved</text>
</g>
<!-- 3&#45;&gt;2 -->
<g id="edge6" class="edge">
<title>3&#45;&gt;2</title>
<path fill="none" stroke="grey" stroke-width="2" d="M365.54,-215.88C383.25,-206.55 405.35,-194.92 424.32,-184.94"/>
<polygon fill="grey" stroke="grey" stroke-width="2" points="426.12,-187.94 433.34,-180.19 422.86,-181.75 426.12,-187.94"/>
</g>
<!-- 4 -->
<g id="node5" class="node">
<title>4</title>
<path fill="none" stroke="#b6d856" stroke-width="2" stroke-dasharray="5,2" d="M373,-324C373,-324 293,-324 293,-324 287,-324 281,-318 281,-312 281,-312 281,-300 281,-300 281,-294 287,-288 293,-288 293,-288 373,-288 373,-288 379,-288 385,-294 385,-300 385,-300 385,-312 385,-312 385,-318 379,-324 373,-324"/>
<text text-anchor="middle" x="333" y="-309" font-family="sans" font-size="10.00">extract_PolyA_DB</text>
<text text-anchor="middle" x="333" y="-298" font-family="sans" font-size="10.00">filter: conserved</text>
</g>
<!-- 4&#45;&gt;3 -->
<g id="edge8" class="edge">
<title>4&#45;&gt;3</title>
<path fill="none" stroke="grey" stroke-width="2" d="M333,-287.7C333,-279.98 333,-270.71 333,-262.11"/>
<polygon fill="grey" stroke="grey" stroke-width="2" points="336.5,-262.1 333,-252.1 329.5,-262.1 336.5,-262.1"/>
</g>
<!-- 9 -->
<g id="node10" class="node">
<title>9</title>
<path fill="none" stroke="#68d856" stroke-width="2" stroke-dasharray="5,2" d="M792,-252C792,-252 592,-252 592,-252 586,-252 580,-246 580,-240 580,-240 580,-228 580,-228 580,-222 586,-216 592,-216 592,-216 792,-216 792,-216 798,-216 804,-222 804,-228 804,-228 804,-240 804,-240 804,-246 798,-252 792,-252"/>
<text text-anchor="middle" x="692" y="-237" font-family="sans" font-size="10.00">convert_bedfile</text>
<text text-anchor="middle" x="692" y="-226" font-family="sans" font-size="10.00">variant_subset: PolyADB_100nt&#45;conserved</text>
</g>
<!-- 4&#45;&gt;9 -->
<g id="edge13" class="edge">
<title>4&#45;&gt;9</title>
<path fill="none" stroke="grey" stroke-width="2" d="M385.2,-294.82C439.86,-284.16 526.97,-267.18 594.42,-254.03"/>
<polygon fill="grey" stroke="grey" stroke-width="2" points="595.5,-257.38 604.65,-252.03 594.16,-250.51 595.5,-257.38"/>
</g>
<!-- 5 -->
<g id="node6" class="node">
<title>5</title>
<path fill="none" stroke="#d87d56" stroke-width="2" stroke-dasharray="5,2" d="M379,-396C379,-396 287,-396 287,-396 281,-396 275,-390 275,-384 275,-384 275,-372 275,-372 275,-366 281,-360 287,-360 287,-360 379,-360 379,-360 385,-360 391,-366 391,-372 391,-372 391,-384 391,-384 391,-390 385,-396 379,-396"/>
<text text-anchor="middle" x="333" y="-375.5" font-family="sans" font-size="10.00">download_PolyA_DB</text>
</g>
<!-- 5&#45;&gt;4 -->
<g id="edge9" class="edge">
<title>5&#45;&gt;4</title>
<path fill="none" stroke="grey" stroke-width="2" d="M333,-359.7C333,-351.98 333,-342.71 333,-334.11"/>
<polygon fill="grey" stroke="grey" stroke-width="2" points="336.5,-334.1 333,-324.1 329.5,-334.1 336.5,-334.1"/>
</g>
<!-- 12 -->
<g id="node13" class="node">
<title>12</title>
<path fill="none" stroke="#b6d856" stroke-width="2" stroke-dasharray="5,2" d="M250,-324C250,-324 170,-324 170,-324 164,-324 158,-318 158,-312 158,-312 158,-300 158,-300 158,-294 164,-288 170,-288 170,-288 250,-288 250,-288 256,-288 262,-294 262,-300 262,-300 262,-312 262,-312 262,-318 256,-324 250,-324"/>
<text text-anchor="middle" x="210" y="-309" font-family="sans" font-size="10.00">extract_PolyA_DB</text>
<text text-anchor="middle" x="210" y="-298" font-family="sans" font-size="10.00">filter: all</text>
</g>
<!-- 5&#45;&gt;12 -->
<g id="edge17" class="edge">
<title>5&#45;&gt;12</title>
<path fill="none" stroke="grey" stroke-width="2" d="M302.91,-359.88C286.68,-350.64 266.46,-339.13 249.03,-329.21"/>
<polygon fill="grey" stroke="grey" stroke-width="2" points="250.63,-326.09 240.2,-324.19 247.16,-332.18 250.63,-326.09"/>
</g>
<!-- 6 -->
<g id="node7" class="node">
<title>6</title>
<path fill="none" stroke="#d8cb56" stroke-width="2" stroke-dasharray="5,2" d="M245,-396C245,-396 175,-396 175,-396 169,-396 163,-390 163,-384 163,-384 163,-372 163,-372 163,-366 169,-360 175,-360 175,-360 245,-360 245,-360 251,-360 257,-366 257,-372 257,-372 257,-384 257,-384 257,-390 251,-396 245,-396"/>
<text text-anchor="middle" x="210" y="-381" font-family="sans" font-size="10.00">genomepy</text>
<text text-anchor="middle" x="210" y="-370" font-family="sans" font-size="10.00">assembly: hg19</text>
</g>
<!-- 6&#45;&gt;4 -->
<g id="edge10" class="edge">
<title>6&#45;&gt;4</title>
<path fill="none" stroke="grey" stroke-width="2" d="M240.09,-359.88C256.32,-350.64 276.54,-339.13 293.97,-329.21"/>
<polygon fill="grey" stroke="grey" stroke-width="2" points="295.84,-332.18 302.8,-324.19 292.37,-326.09 295.84,-332.18"/>
</g>
<!-- 6&#45;&gt;12 -->
<g id="edge18" class="edge">
<title>6&#45;&gt;12</title>
<path fill="none" stroke="grey" stroke-width="2" d="M210,-359.7C210,-351.98 210,-342.71 210,-334.11"/>
<polygon fill="grey" stroke="grey" stroke-width="2" points="213.5,-334.1 210,-324.1 206.5,-334.1 213.5,-334.1"/>
</g>
<!-- 7 -->
<g id="node8" class="node">
<title>7</title>
<path fill="none" stroke="#56d8b9" stroke-width="2" stroke-dasharray="5,2" d="M549.5,-252C549.5,-252 472.5,-252 472.5,-252 466.5,-252 460.5,-246 460.5,-240 460.5,-240 460.5,-228 460.5,-228 460.5,-222 466.5,-216 472.5,-216 472.5,-216 549.5,-216 549.5,-216 555.5,-216 561.5,-222 561.5,-228 561.5,-228 561.5,-240 561.5,-240 561.5,-246 555.5,-252 549.5,-252"/>
<text text-anchor="middle" x="511" y="-231.5" font-family="sans" font-size="10.00">prepare_gnomAD</text>
</g>
<!-- 7&#45;&gt;2 -->
<g id="edge7" class="edge">
<title>7&#45;&gt;2</title>
<path fill="none" stroke="grey" stroke-width="2" d="M499.88,-215.7C494.64,-207.56 488.3,-197.69 482.52,-188.7"/>
<polygon fill="grey" stroke="grey" stroke-width="2" points="485.35,-186.62 477,-180.1 479.46,-190.41 485.35,-186.62"/>
</g>
<!-- 8 -->
<g id="node9" class="node">
<title>8</title>
<path fill="none" stroke="#56d86b" stroke-width="2" stroke-dasharray="5,2" d="M580,-180C580,-180 532,-180 532,-180 526,-180 520,-174 520,-168 520,-168 520,-156 520,-156 520,-150 526,-144 532,-144 532,-144 580,-144 580,-144 586,-144 592,-150 592,-156 592,-156 592,-168 592,-168 592,-174 586,-180 580,-180"/>
<text text-anchor="middle" x="556" y="-159.5" font-family="sans" font-size="10.00">MAPS_local</text>
</g>
<!-- 7&#45;&gt;8 -->
<g id="edge12" class="edge">
<title>7&#45;&gt;8</title>
<path fill="none" stroke="grey" stroke-width="2" d="M522.12,-215.7C527.36,-207.56 533.7,-197.69 539.48,-188.7"/>
<polygon fill="grey" stroke="grey" stroke-width="2" points="542.54,-190.41 545,-180.1 536.65,-186.62 542.54,-190.41"/>
</g>
<!-- 10 -->
<g id="node11" class="node">
<title>10</title>
<path fill="none" stroke="#56d86b" stroke-width="2" stroke-dasharray="5,2" d="M400,-180C400,-180 352,-180 352,-180 346,-180 340,-174 340,-168 340,-168 340,-156 340,-156 340,-150 346,-144 352,-144 352,-144 400,-144 400,-144 406,-144 412,-150 412,-156 412,-156 412,-168 412,-168 412,-174 406,-180 400,-180"/>
<text text-anchor="middle" x="376" y="-159.5" font-family="sans" font-size="10.00">MAPS_local</text>
</g>
<!-- 7&#45;&gt;10 -->
<g id="edge15" class="edge">
<title>7&#45;&gt;10</title>
<path fill="none" stroke="grey" stroke-width="2" d="M477.98,-215.88C459.92,-206.51 437.35,-194.81 418.05,-184.8"/>
<polygon fill="grey" stroke="grey" stroke-width="2" points="419.64,-181.69 409.15,-180.19 416.42,-187.9 419.64,-181.69"/>
</g>
<!-- 13 -->
<g id="node14" class="node">
<title>13</title>
<path fill="none" stroke="#56d86b" stroke-width="2" stroke-dasharray="5,2" d="M670,-180C670,-180 622,-180 622,-180 616,-180 610,-174 610,-168 610,-168 610,-156 610,-156 610,-150 616,-144 622,-144 622,-144 670,-144 670,-144 676,-144 682,-150 682,-156 682,-156 682,-168 682,-168 682,-174 676,-180 670,-180"/>
<text text-anchor="middle" x="646" y="-159.5" font-family="sans" font-size="10.00">MAPS_local</text>
</g>
<!-- 7&#45;&gt;13 -->
<g id="edge20" class="edge">
<title>7&#45;&gt;13</title>
<path fill="none" stroke="grey" stroke-width="2" d="M544.02,-215.88C562.08,-206.51 584.65,-194.81 603.95,-184.8"/>
<polygon fill="grey" stroke="grey" stroke-width="2" points="605.58,-187.9 612.85,-180.19 602.36,-181.69 605.58,-187.9"/>
</g>
<!-- 8&#45;&gt;1 -->
<g id="edge3" class="edge">
<title>8&#45;&gt;1</title>
<path fill="none" stroke="grey" stroke-width="2" d="M544.88,-143.7C539.64,-135.56 533.3,-125.69 527.52,-116.7"/>
<polygon fill="grey" stroke="grey" stroke-width="2" points="530.35,-114.62 522,-108.1 524.46,-118.41 530.35,-114.62"/>
</g>
<!-- 9&#45;&gt;8 -->
<g id="edge11" class="edge">
<title>9&#45;&gt;8</title>
<path fill="none" stroke="grey" stroke-width="2" d="M658.73,-215.88C640.54,-206.51 617.81,-194.81 598.36,-184.8"/>
<polygon fill="grey" stroke="grey" stroke-width="2" points="599.89,-181.65 589.4,-180.19 596.69,-187.88 599.89,-181.65"/>
</g>
<!-- 10&#45;&gt;1 -->
<g id="edge4" class="edge">
<title>10&#45;&gt;1</title>
<path fill="none" stroke="grey" stroke-width="2" d="M409.02,-143.88C428.93,-133.56 454.29,-120.4 474.75,-109.8"/>
<polygon fill="grey" stroke="grey" stroke-width="2" points="476.5,-112.83 483.76,-105.12 473.27,-106.62 476.5,-112.83"/>
</g>
<!-- 11 -->
<g id="node12" class="node">
<title>11</title>
<path fill="none" stroke="#68d856" stroke-width="2" stroke-dasharray="5,2" d="M194,-252C194,-252 12,-252 12,-252 6,-252 0,-246 0,-240 0,-240 0,-228 0,-228 0,-222 6,-216 12,-216 12,-216 194,-216 194,-216 200,-216 206,-222 206,-228 206,-228 206,-240 206,-240 206,-246 200,-252 194,-252"/>
<text text-anchor="middle" x="103" y="-237" font-family="sans" font-size="10.00">convert_bedfile</text>
<text text-anchor="middle" x="103" y="-226" font-family="sans" font-size="10.00">variant_subset: PolyADB_hexamers&#45;all</text>
</g>
<!-- 11&#45;&gt;10 -->
<g id="edge14" class="edge">
<title>11&#45;&gt;10</title>
<path fill="none" stroke="grey" stroke-width="2" d="M169.43,-215.97C219.22,-203.2 286.06,-186.06 330.05,-174.78"/>
<polygon fill="grey" stroke="grey" stroke-width="2" points="331.08,-178.13 339.9,-172.26 329.34,-171.35 331.08,-178.13"/>
</g>
<!-- 12&#45;&gt;11 -->
<g id="edge16" class="edge">
<title>12&#45;&gt;11</title>
<path fill="none" stroke="grey" stroke-width="2" d="M183.82,-287.88C169.96,-278.81 152.76,-267.55 137.79,-257.76"/>
<polygon fill="grey" stroke="grey" stroke-width="2" points="139.56,-254.74 129.28,-252.19 135.73,-260.59 139.56,-254.74"/>
</g>
<!-- 13&#45;&gt;1 -->
<g id="edge5" class="edge">
<title>13&#45;&gt;1</title>
<path fill="none" stroke="grey" stroke-width="2" d="M612.98,-143.88C593.07,-133.56 567.71,-120.4 547.25,-109.8"/>
<polygon fill="grey" stroke="grey" stroke-width="2" points="548.73,-106.62 538.24,-105.12 545.5,-112.83 548.73,-106.62"/>
</g>
<!-- 14 -->
<g id="node15" class="node">
<title>14</title>
<path fill="none" stroke="#68d856" stroke-width="2" stroke-dasharray="5,2" d="M973.5,-252C973.5,-252 834.5,-252 834.5,-252 828.5,-252 822.5,-246 822.5,-240 822.5,-240 822.5,-228 822.5,-228 822.5,-222 828.5,-216 834.5,-216 834.5,-216 973.5,-216 973.5,-216 979.5,-216 985.5,-222 985.5,-228 985.5,-228 985.5,-240 985.5,-240 985.5,-246 979.5,-252 973.5,-252"/>
<text text-anchor="middle" x="904" y="-237" font-family="sans" font-size="10.00">convert_bedfile</text>
<text text-anchor="middle" x="904" y="-226" font-family="sans" font-size="10.00">variant_subset: Gencode_UTR</text>
</g>
<!-- 14&#45;&gt;13 -->
<g id="edge19" class="edge">
<title>14&#45;&gt;13</title>
<path fill="none" stroke="grey" stroke-width="2" d="M841.22,-215.97C795.19,-203.48 733.74,-186.81 692.17,-175.53"/>
<polygon fill="grey" stroke="grey" stroke-width="2" points="692.88,-172.09 682.31,-172.85 691.05,-178.85 692.88,-172.09"/>
</g>
<!-- 15 -->
<g id="node16" class="node">
<title>15</title>
<path fill="none" stroke="#56a9d8" stroke-width="2" stroke-dasharray="5,2" d="M954.5,-324C954.5,-324 853.5,-324 853.5,-324 847.5,-324 841.5,-318 841.5,-312 841.5,-312 841.5,-300 841.5,-300 841.5,-294 847.5,-288 853.5,-288 853.5,-288 954.5,-288 954.5,-288 960.5,-288 966.5,-294 966.5,-300 966.5,-300 966.5,-312 966.5,-312 966.5,-318 960.5,-324 954.5,-324"/>
<text text-anchor="middle" x="904" y="-303.5" font-family="sans" font-size="10.00">extract_Gencode_UTR</text>
</g>
<!-- 15&#45;&gt;14 -->
<g id="edge21" class="edge">
<title>15&#45;&gt;14</title>
<path fill="none" stroke="grey" stroke-width="2" d="M904,-287.7C904,-279.98 904,-270.71 904,-262.11"/>
<polygon fill="grey" stroke="grey" stroke-width="2" points="907.5,-262.1 904,-252.1 900.5,-262.1 907.5,-262.1"/>
</g>
<!-- 16 -->
<g id="node17" class="node">
<title>16</title>
<path fill="none" stroke="#d85656" stroke-width="2" stroke-dasharray="5,2" d="M948,-396C948,-396 860,-396 860,-396 854,-396 848,-390 848,-384 848,-384 848,-372 848,-372 848,-366 854,-360 860,-360 860,-360 948,-360 948,-360 954,-360 960,-366 960,-372 960,-372 960,-384 960,-384 960,-390 954,-396 948,-396"/>
<text text-anchor="middle" x="904" y="-375.5" font-family="sans" font-size="10.00">download_Gencode</text>
</g>
<!-- 16&#45;&gt;15 -->
<g id="edge22" class="edge">
<title>16&#45;&gt;15</title>
<path fill="none" stroke="grey" stroke-width="2" d="M904,-359.7C904,-351.98 904,-342.71 904,-334.11"/>
<polygon fill="grey" stroke="grey" stroke-width="2" points="907.5,-334.1 904,-324.1 900.5,-334.1 907.5,-334.1"/>
</g>
</g>
</svg>
