<?xml version="1.0" encoding="UTF-8" standalone="no"?>
<!DOCTYPE svg PUBLIC "-//W3C//DTD SVG 1.1//EN"
 "http://www.w3.org/Graphics/SVG/1.1/DTD/svg11.dtd">
<!-- Generated by graphviz version 2.42.3 (20191010.1750)
 -->
<!-- Title: snakemake_dag Pages: 1 -->
<svg width="484pt" height="409pt"
 viewBox="0.00 0.00 483.50 409.00" xmlns="http://www.w3.org/2000/svg" xmlns:xlink="http://www.w3.org/1999/xlink">
<g id="graph0" class="graph" transform="scale(1 1) rotate(0) translate(4 405)">
<title>snakemake_dag</title>
<polygon fill="white" stroke="transparent" points="-4,4 -4,-405 479.5,-405 479.5,4 -4,4"/>
<!-- 0 -->
<g id="node1" class="node">
<title>0</title>
<path fill="none" stroke="#56d892" stroke-width="2" stroke-dasharray="5,2" d="M253.5,-36C253.5,-36 223.5,-36 223.5,-36 217.5,-36 211.5,-30 211.5,-24 211.5,-24 211.5,-12 211.5,-12 211.5,-6 217.5,0 223.5,0 223.5,0 253.5,0 253.5,0 259.5,0 265.5,-6 265.5,-12 265.5,-12 265.5,-24 265.5,-24 265.5,-30 259.5,-36 253.5,-36"/>
<text text-anchor="middle" x="238.5" y="-15.5" font-family="sans" font-size="10.00">all</text>
</g>
<!-- 1 -->
<g id="node2" class="node">
<title>1</title>
<path fill="none" stroke="#567bd8" stroke-width="2" stroke-dasharray="5,2" d="M119,-113C119,-113 12,-113 12,-113 6,-113 0,-107 0,-101 0,-101 0,-84 0,-84 0,-78 6,-72 12,-72 12,-72 119,-72 119,-72 125,-72 131,-78 131,-84 131,-84 131,-101 131,-101 131,-107 125,-113 119,-113"/>
<text text-anchor="middle" x="65.5" y="-101" font-family="sans" font-size="10.00">MAPS</text>
<text text-anchor="middle" x="65.5" y="-90" font-family="sans" font-size="10.00">aggregation: conserved</text>
<text text-anchor="middle" x="65.5" y="-79" font-family="sans" font-size="10.00">run_location: gcp</text>
</g>
<!-- 1&#45;&gt;0 -->
<g id="edge1" class="edge">
<title>1&#45;&gt;0</title>
<path fill="none" stroke="grey" stroke-width="2" d="M112.32,-71.88C140.44,-60.09 175.72,-45.31 201.82,-34.37"/>
<polygon fill="grey" stroke="grey" stroke-width="2" points="203.47,-37.48 211.34,-30.38 200.76,-31.02 203.47,-37.48"/>
</g>
<!-- 2 -->
<g id="node3" class="node">
<title>2</title>
<path fill="none" stroke="#68d856" stroke-width="2" stroke-dasharray="5,2" d="M289,-185C289,-185 188,-185 188,-185 182,-185 176,-179 176,-173 176,-173 176,-161 176,-161 176,-155 182,-149 188,-149 188,-149 289,-149 289,-149 295,-149 301,-155 301,-161 301,-161 301,-173 301,-173 301,-179 295,-185 289,-185"/>
<text text-anchor="middle" x="238.5" y="-170" font-family="sans" font-size="10.00">count_singletons_GCP</text>
<text text-anchor="middle" x="238.5" y="-159" font-family="sans" font-size="10.00">chr_subset: genome</text>
</g>
<!-- 2&#45;&gt;1 -->
<g id="edge4" class="edge">
<title>2&#45;&gt;1</title>
<path fill="none" stroke="grey" stroke-width="2" d="M197.5,-148.82C174.82,-139.31 146.3,-127.36 121.58,-117"/>
<polygon fill="grey" stroke="grey" stroke-width="2" points="122.89,-113.76 112.32,-113.12 120.19,-120.21 122.89,-113.76"/>
</g>
<!-- 9 -->
<g id="node10" class="node">
<title>9</title>
<path fill="none" stroke="#567bd8" stroke-width="2" stroke-dasharray="5,2" d="M315.5,-113C315.5,-113 161.5,-113 161.5,-113 155.5,-113 149.5,-107 149.5,-101 149.5,-101 149.5,-84 149.5,-84 149.5,-78 155.5,-72 161.5,-72 161.5,-72 315.5,-72 315.5,-72 321.5,-72 327.5,-78 327.5,-84 327.5,-84 327.5,-101 327.5,-101 327.5,-107 321.5,-113 315.5,-113"/>
<text text-anchor="middle" x="238.5" y="-101" font-family="sans" font-size="10.00">MAPS</text>
<text text-anchor="middle" x="238.5" y="-90" font-family="sans" font-size="10.00">aggregation: hexamer&#45;conserved</text>
<text text-anchor="middle" x="238.5" y="-79" font-family="sans" font-size="10.00">run_location: gcp</text>
</g>
<!-- 2&#45;&gt;9 -->
<g id="edge11" class="edge">
<title>2&#45;&gt;9</title>
<path fill="none" stroke="grey" stroke-width="2" d="M238.5,-148.82C238.5,-141.2 238.5,-132 238.5,-123.32"/>
<polygon fill="grey" stroke="grey" stroke-width="2" points="242,-123.12 238.5,-113.12 235,-123.12 242,-123.12"/>
</g>
<!-- 10 -->
<g id="node11" class="node">
<title>10</title>
<path fill="none" stroke="#567bd8" stroke-width="2" stroke-dasharray="5,2" d="M463.5,-113C463.5,-113 357.5,-113 357.5,-113 351.5,-113 345.5,-107 345.5,-101 345.5,-101 345.5,-84 345.5,-84 345.5,-78 351.5,-72 357.5,-72 357.5,-72 463.5,-72 463.5,-72 469.5,-72 475.5,-78 475.5,-84 475.5,-84 475.5,-101 475.5,-101 475.5,-107 469.5,-113 463.5,-113"/>
<text text-anchor="middle" x="410.5" y="-101" font-family="sans" font-size="10.00">MAPS</text>
<text text-anchor="middle" x="410.5" y="-90" font-family="sans" font-size="10.00">aggregation: worst_csq</text>
<text text-anchor="middle" x="410.5" y="-79" font-family="sans" font-size="10.00">run_location: gcp</text>
</g>
<!-- 2&#45;&gt;10 -->
<g id="edge12" class="edge">
<title>2&#45;&gt;10</title>
<path fill="none" stroke="grey" stroke-width="2" d="M279.26,-148.82C301.71,-139.36 329.91,-127.47 354.42,-117.14"/>
<polygon fill="grey" stroke="grey" stroke-width="2" points="356.1,-120.23 363.95,-113.12 353.38,-113.78 356.1,-120.23"/>
</g>
<!-- 3 -->
<g id="node4" class="node">
<title>3</title>
<path fill="none" stroke="#d8a456" stroke-width="2" stroke-dasharray="5,2" d="M287.5,-257C287.5,-257 189.5,-257 189.5,-257 183.5,-257 177.5,-251 177.5,-245 177.5,-245 177.5,-233 177.5,-233 177.5,-227 183.5,-221 189.5,-221 189.5,-221 287.5,-221 287.5,-221 293.5,-221 299.5,-227 299.5,-233 299.5,-233 299.5,-245 299.5,-245 299.5,-251 293.5,-257 287.5,-257"/>
<text text-anchor="middle" x="238.5" y="-236.5" font-family="sans" font-size="10.00">merge_UTR_intervals</text>
</g>
<!-- 3&#45;&gt;2 -->
<g id="edge5" class="edge">
<title>3&#45;&gt;2</title>
<path fill="none" stroke="grey" stroke-width="2" d="M238.5,-220.7C238.5,-212.98 238.5,-203.71 238.5,-195.11"/>
<polygon fill="grey" stroke="grey" stroke-width="2" points="242,-195.1 238.5,-185.1 235,-195.1 242,-195.1"/>
</g>
<!-- 4 -->
<g id="node5" class="node">
<title>4</title>
<path fill="none" stroke="#d85656" stroke-width="2" stroke-dasharray="5,2" d="M223,-329C223,-329 122,-329 122,-329 116,-329 110,-323 110,-317 110,-317 110,-305 110,-305 110,-299 116,-293 122,-293 122,-293 223,-293 223,-293 229,-293 235,-299 235,-305 235,-305 235,-317 235,-317 235,-323 229,-329 223,-329"/>
<text text-anchor="middle" x="172.5" y="-308.5" font-family="sans" font-size="10.00">extract_Gencode_UTR</text>
</g>
<!-- 4&#45;&gt;3 -->
<g id="edge6" class="edge">
<title>4&#45;&gt;3</title>
<path fill="none" stroke="grey" stroke-width="2" d="M188.81,-292.7C196.81,-284.22 206.57,-273.86 215.32,-264.58"/>
<polygon fill="grey" stroke="grey" stroke-width="2" points="218.06,-266.78 222.37,-257.1 212.97,-261.98 218.06,-266.78"/>
</g>
<!-- 5 -->
<g id="node6" class="node">
<title>5</title>
<path fill="none" stroke="#8fd856" stroke-width="2" stroke-dasharray="5,2" d="M216.5,-401C216.5,-401 128.5,-401 128.5,-401 122.5,-401 116.5,-395 116.5,-389 116.5,-389 116.5,-377 116.5,-377 116.5,-371 122.5,-365 128.5,-365 128.5,-365 216.5,-365 216.5,-365 222.5,-365 228.5,-371 228.5,-377 228.5,-377 228.5,-389 228.5,-389 228.5,-395 222.5,-401 216.5,-401"/>
<text text-anchor="middle" x="172.5" y="-380.5" font-family="sans" font-size="10.00">download_Gencode</text>
</g>
<!-- 5&#45;&gt;4 -->
<g id="edge8" class="edge">
<title>5&#45;&gt;4</title>
<path fill="none" stroke="grey" stroke-width="2" d="M172.5,-364.7C172.5,-356.98 172.5,-347.71 172.5,-339.11"/>
<polygon fill="grey" stroke="grey" stroke-width="2" points="176,-339.1 172.5,-329.1 169,-339.1 176,-339.1"/>
</g>
<!-- 6 -->
<g id="node7" class="node">
<title>6</title>
<path fill="none" stroke="#56d86b" stroke-width="2" stroke-dasharray="5,2" d="M345.5,-329C345.5,-329 265.5,-329 265.5,-329 259.5,-329 253.5,-323 253.5,-317 253.5,-317 253.5,-305 253.5,-305 253.5,-299 259.5,-293 265.5,-293 265.5,-293 345.5,-293 345.5,-293 351.5,-293 357.5,-299 357.5,-305 357.5,-305 357.5,-317 357.5,-317 357.5,-323 351.5,-329 345.5,-329"/>
<text text-anchor="middle" x="305.5" y="-308.5" font-family="sans" font-size="10.00">extract_PolyA_DB</text>
</g>
<!-- 6&#45;&gt;3 -->
<g id="edge7" class="edge">
<title>6&#45;&gt;3</title>
<path fill="none" stroke="grey" stroke-width="2" d="M288.94,-292.7C280.82,-284.22 270.91,-273.86 262.03,-264.58"/>
<polygon fill="grey" stroke="grey" stroke-width="2" points="264.31,-261.91 254.87,-257.1 259.26,-266.75 264.31,-261.91"/>
</g>
<!-- 7 -->
<g id="node8" class="node">
<title>7</title>
<path fill="none" stroke="#b6d856" stroke-width="2" stroke-dasharray="5,2" d="M350.5,-401C350.5,-401 258.5,-401 258.5,-401 252.5,-401 246.5,-395 246.5,-389 246.5,-389 246.5,-377 246.5,-377 246.5,-371 252.5,-365 258.5,-365 258.5,-365 350.5,-365 350.5,-365 356.5,-365 362.5,-371 362.5,-377 362.5,-377 362.5,-389 362.5,-389 362.5,-395 356.5,-401 350.5,-401"/>
<text text-anchor="middle" x="304.5" y="-380.5" font-family="sans" font-size="10.00">download_PolyA_DB</text>
</g>
<!-- 7&#45;&gt;6 -->
<g id="edge9" class="edge">
<title>7&#45;&gt;6</title>
<path fill="none" stroke="grey" stroke-width="2" d="M304.75,-364.7C304.86,-356.98 304.99,-347.71 305.11,-339.11"/>
<polygon fill="grey" stroke="grey" stroke-width="2" points="308.61,-339.15 305.26,-329.1 301.61,-339.05 308.61,-339.15"/>
</g>
<!-- 8 -->
<g id="node9" class="node">
<title>8</title>
<path fill="none" stroke="#d87d56" stroke-width="2" stroke-dasharray="5,2" d="M462,-401C462,-401 393,-401 393,-401 387,-401 381,-395 381,-389 381,-389 381,-377 381,-377 381,-371 387,-365 393,-365 393,-365 462,-365 462,-365 468,-365 474,-371 474,-377 474,-377 474,-389 474,-389 474,-395 468,-401 462,-401"/>
<text text-anchor="middle" x="427.5" y="-386" font-family="sans" font-size="10.00">genomepy</text>
<text text-anchor="middle" x="427.5" y="-375" font-family="sans" font-size="10.00">assembly: hg19</text>
</g>
<!-- 8&#45;&gt;6 -->
<g id="edge10" class="edge">
<title>8&#45;&gt;6</title>
<path fill="none" stroke="grey" stroke-width="2" d="M397.66,-364.88C381.56,-355.64 361.5,-344.13 344.21,-334.21"/>
<polygon fill="grey" stroke="grey" stroke-width="2" points="345.87,-331.13 335.46,-329.19 342.39,-337.2 345.87,-331.13"/>
</g>
<!-- 9&#45;&gt;0 -->
<g id="edge2" class="edge">
<title>9&#45;&gt;0</title>
<path fill="none" stroke="grey" stroke-width="2" d="M238.5,-71.69C238.5,-63.91 238.5,-54.84 238.5,-46.45"/>
<polygon fill="grey" stroke="grey" stroke-width="2" points="242,-46.32 238.5,-36.32 235,-46.32 242,-46.32"/>
</g>
<!-- 10&#45;&gt;0 -->
<g id="edge3" class="edge">
<title>10&#45;&gt;0</title>
<path fill="none" stroke="grey" stroke-width="2" d="M363.95,-71.88C336.08,-60.13 301.14,-45.4 275.22,-34.48"/>
<polygon fill="grey" stroke="grey" stroke-width="2" points="276.33,-31.15 265.76,-30.49 273.61,-37.6 276.33,-31.15"/>
</g>
</g>
</svg>
