<?xml version="1.0" encoding="UTF-8" standalone="no"?>
<!DOCTYPE svg PUBLIC "-//W3C//DTD SVG 1.1//EN"
 "http://www.w3.org/Graphics/SVG/1.1/DTD/svg11.dtd">
<!-- Generated by graphviz version 2.42.3 (20191010.1750)
 -->
<!-- Title: snakemake_dag Pages: 1 -->
<svg width="594pt" height="476pt"
 viewBox="0.00 0.00 593.50 476.00" xmlns="http://www.w3.org/2000/svg" xmlns:xlink="http://www.w3.org/1999/xlink">
<g id="graph0" class="graph" transform="scale(1 1) rotate(0) translate(4 472)">
<title>snakemake_dag</title>
<polygon fill="white" stroke="transparent" points="-4,4 -4,-472 589.5,-472 589.5,4 -4,4"/>
<!-- 0 -->
<g id="node1" class="node">
<title>0</title>
<path fill="none" stroke="#78d856" stroke-width="2" d="M315,-36C315,-36 285,-36 285,-36 279,-36 273,-30 273,-24 273,-24 273,-12 273,-12 273,-6 279,0 285,0 285,0 315,0 315,0 321,0 327,-6 327,-12 327,-12 327,-24 327,-24 327,-30 321,-36 315,-36"/>
<text text-anchor="middle" x="300" y="-15.5" font-family="sans" font-size="10.00">all</text>
</g>
<!-- 1 -->
<g id="node2" class="node">
<title>1</title>
<path fill="none" stroke="#56d8d8" stroke-width="2" d="M315,-108C315,-108 285,-108 285,-108 279,-108 273,-102 273,-96 273,-96 273,-84 273,-84 273,-78 279,-72 285,-72 285,-72 315,-72 315,-72 321,-72 327,-78 327,-84 327,-84 327,-96 327,-96 327,-102 321,-108 315,-108"/>
<text text-anchor="middle" x="300" y="-87.5" font-family="sans" font-size="10.00">plots</text>
</g>
<!-- 1&#45;&gt;0 -->
<g id="edge1" class="edge">
<title>1&#45;&gt;0</title>
<path fill="none" stroke="grey" stroke-width="2" d="M300,-71.7C300,-63.98 300,-54.71 300,-46.11"/>
<polygon fill="grey" stroke="grey" stroke-width="2" points="303.5,-46.1 300,-36.1 296.5,-46.1 303.5,-46.1"/>
</g>
<!-- 2 -->
<g id="node3" class="node">
<title>2</title>
<path fill="none" stroke="#d8b456" stroke-width="2" d="M279,-180C279,-180 203,-180 203,-180 197,-180 191,-174 191,-168 191,-168 191,-156 191,-156 191,-150 197,-144 203,-144 203,-144 279,-144 279,-144 285,-144 291,-150 291,-156 291,-156 291,-168 291,-168 291,-174 285,-180 279,-180"/>
<text text-anchor="middle" x="241" y="-165" font-family="sans" font-size="10.00">gather_MAPS</text>
<text text-anchor="middle" x="241" y="-154" font-family="sans" font-size="10.00">run_location: gcp</text>
</g>
<!-- 2&#45;&gt;1 -->
<g id="edge2" class="edge">
<title>2&#45;&gt;1</title>
<path fill="none" stroke="grey" stroke-width="2" d="M255.58,-143.7C262.66,-135.3 271.28,-125.07 279.05,-115.86"/>
<polygon fill="grey" stroke="grey" stroke-width="2" points="281.81,-118.01 285.58,-108.1 276.46,-113.49 281.81,-118.01"/>
</g>
<!-- 3 -->
<g id="node4" class="node">
<title>3</title>
<path fill="none" stroke="#56d8b9" stroke-width="2" d="M162,-252C162,-252 12,-252 12,-252 6,-252 0,-246 0,-240 0,-240 0,-228 0,-228 0,-222 6,-216 12,-216 12,-216 162,-216 162,-216 168,-216 174,-222 174,-228 174,-228 174,-240 174,-240 174,-246 168,-252 162,-252"/>
<text text-anchor="middle" x="87" y="-237" font-family="sans" font-size="10.00">MAPS_GCP</text>
<text text-anchor="middle" x="87" y="-226" font-family="sans" font-size="10.00">variant_subset: PolyADB&#45;overall</text>
</g>
<!-- 3&#45;&gt;2 -->
<g id="edge6" class="edge">
<title>3&#45;&gt;2</title>
<path fill="none" stroke="grey" stroke-width="2" d="M124.67,-215.88C145.63,-206.35 171.9,-194.41 194.18,-184.28"/>
<polygon fill="grey" stroke="grey" stroke-width="2" points="195.79,-187.39 203.45,-180.07 192.9,-181.02 195.79,-187.39"/>
</g>
<!-- 14 -->
<g id="node15" class="node">
<title>14</title>
<path fill="none" stroke="#b6d856" stroke-width="2" d="M149,-180C149,-180 73,-180 73,-180 67,-180 61,-174 61,-168 61,-168 61,-156 61,-156 61,-150 67,-144 73,-144 73,-144 149,-144 149,-144 155,-144 161,-150 161,-156 161,-156 161,-168 161,-168 161,-174 155,-180 149,-180"/>
<text text-anchor="middle" x="111" y="-165" font-family="sans" font-size="10.00">plot_single</text>
<text text-anchor="middle" x="111" y="-154" font-family="sans" font-size="10.00">run_location: gcp</text>
</g>
<!-- 3&#45;&gt;14 -->
<g id="edge21" class="edge">
<title>3&#45;&gt;14</title>
<path fill="none" stroke="grey" stroke-width="2" d="M92.93,-215.7C95.61,-207.9 98.83,-198.51 101.8,-189.83"/>
<polygon fill="grey" stroke="grey" stroke-width="2" points="105.2,-190.7 105.14,-180.1 98.58,-188.43 105.2,-190.7"/>
</g>
<!-- 4 -->
<g id="node5" class="node">
<title>4</title>
<path fill="none" stroke="#56d87b" stroke-width="2" stroke-dasharray="5,2" d="M193,-324C193,-324 95,-324 95,-324 89,-324 83,-318 83,-312 83,-312 83,-300 83,-300 83,-294 89,-288 95,-288 95,-288 193,-288 193,-288 199,-288 205,-294 205,-300 205,-300 205,-312 205,-312 205,-318 199,-324 193,-324"/>
<text text-anchor="middle" x="144" y="-309" font-family="sans" font-size="10.00">merge_UTR_intervals</text>
<text text-anchor="middle" x="144" y="-298" font-family="sans" font-size="10.00">annotation: overall</text>
</g>
<!-- 4&#45;&gt;3 -->
<g id="edge9" class="edge">
<title>4&#45;&gt;3</title>
<path fill="none" stroke="grey" stroke-width="2" d="M129.91,-287.7C123.08,-279.3 114.74,-269.07 107.24,-259.86"/>
<polygon fill="grey" stroke="grey" stroke-width="2" points="109.96,-257.65 100.93,-252.1 104.53,-262.07 109.96,-257.65"/>
</g>
<!-- 5 -->
<g id="node6" class="node">
<title>5</title>
<path fill="none" stroke="#d6d856" stroke-width="2" stroke-dasharray="5,2" d="M267.5,-396C267.5,-396 166.5,-396 166.5,-396 160.5,-396 154.5,-390 154.5,-384 154.5,-384 154.5,-372 154.5,-372 154.5,-366 160.5,-360 166.5,-360 166.5,-360 267.5,-360 267.5,-360 273.5,-360 279.5,-366 279.5,-372 279.5,-372 279.5,-384 279.5,-384 279.5,-390 273.5,-396 267.5,-396"/>
<text text-anchor="middle" x="217" y="-375.5" font-family="sans" font-size="10.00">extract_Gencode_UTR</text>
</g>
<!-- 5&#45;&gt;4 -->
<g id="edge10" class="edge">
<title>5&#45;&gt;4</title>
<path fill="none" stroke="grey" stroke-width="2" d="M198.96,-359.7C189.94,-351.05 178.88,-340.45 169.06,-331.03"/>
<polygon fill="grey" stroke="grey" stroke-width="2" points="171.48,-328.5 161.84,-324.1 166.63,-333.55 171.48,-328.5"/>
</g>
<!-- 11 -->
<g id="node12" class="node">
<title>11</title>
<path fill="none" stroke="#56d87b" stroke-width="2" stroke-dasharray="5,2" d="M333,-324C333,-324 235,-324 235,-324 229,-324 223,-318 223,-312 223,-312 223,-300 223,-300 223,-294 229,-288 235,-288 235,-288 333,-288 333,-288 339,-288 345,-294 345,-300 345,-300 345,-312 345,-312 345,-318 339,-324 333,-324"/>
<text text-anchor="middle" x="284" y="-309" font-family="sans" font-size="10.00">merge_UTR_intervals</text>
<text text-anchor="middle" x="284" y="-298" font-family="sans" font-size="10.00">annotation: hexamer</text>
</g>
<!-- 5&#45;&gt;11 -->
<g id="edge16" class="edge">
<title>5&#45;&gt;11</title>
<path fill="none" stroke="grey" stroke-width="2" d="M233.56,-359.7C241.68,-351.22 251.59,-340.86 260.47,-331.58"/>
<polygon fill="grey" stroke="grey" stroke-width="2" points="263.24,-333.75 267.63,-324.1 258.19,-328.91 263.24,-333.75"/>
</g>
<!-- 13 -->
<g id="node14" class="node">
<title>13</title>
<path fill="none" stroke="#56d87b" stroke-width="2" stroke-dasharray="5,2" d="M476.5,-324C476.5,-324 375.5,-324 375.5,-324 369.5,-324 363.5,-318 363.5,-312 363.5,-312 363.5,-300 363.5,-300 363.5,-294 369.5,-288 375.5,-288 375.5,-288 476.5,-288 476.5,-288 482.5,-288 488.5,-294 488.5,-300 488.5,-300 488.5,-312 488.5,-312 488.5,-318 482.5,-324 476.5,-324"/>
<text text-anchor="middle" x="426" y="-309" font-family="sans" font-size="10.00">merge_UTR_intervals</text>
<text text-anchor="middle" x="426" y="-298" font-family="sans" font-size="10.00">annotation: conserved</text>
</g>
<!-- 5&#45;&gt;13 -->
<g id="edge19" class="edge">
<title>5&#45;&gt;13</title>
<path fill="none" stroke="grey" stroke-width="2" d="M267.86,-359.97C297.19,-350.14 334.25,-337.73 365.12,-327.39"/>
<polygon fill="grey" stroke="grey" stroke-width="2" points="366.54,-330.61 374.91,-324.11 364.32,-323.97 366.54,-330.61"/>
</g>
<!-- 6 -->
<g id="node7" class="node">
<title>6</title>
<path fill="none" stroke="#97d856" stroke-width="2" stroke-dasharray="5,2" d="M261,-468C261,-468 173,-468 173,-468 167,-468 161,-462 161,-456 161,-456 161,-444 161,-444 161,-438 167,-432 173,-432 173,-432 261,-432 261,-432 267,-432 273,-438 273,-444 273,-444 273,-456 273,-456 273,-462 267,-468 261,-468"/>
<text text-anchor="middle" x="217" y="-447.5" font-family="sans" font-size="10.00">download_Gencode</text>
</g>
<!-- 6&#45;&gt;5 -->
<g id="edge12" class="edge">
<title>6&#45;&gt;5</title>
<path fill="none" stroke="grey" stroke-width="2" d="M217,-431.7C217,-423.98 217,-414.71 217,-406.11"/>
<polygon fill="grey" stroke="grey" stroke-width="2" points="220.5,-406.1 217,-396.1 213.5,-406.1 220.5,-406.1"/>
</g>
<!-- 7 -->
<g id="node8" class="node">
<title>7</title>
<path fill="none" stroke="#56b9d8" stroke-width="2" stroke-dasharray="5,2" d="M390,-396C390,-396 310,-396 310,-396 304,-396 298,-390 298,-384 298,-384 298,-372 298,-372 298,-366 304,-360 310,-360 310,-360 390,-360 390,-360 396,-360 402,-366 402,-372 402,-372 402,-384 402,-384 402,-390 396,-396 390,-396"/>
<text text-anchor="middle" x="350" y="-375.5" font-family="sans" font-size="10.00">extract_PolyA_DB</text>
</g>
<!-- 7&#45;&gt;4 -->
<g id="edge11" class="edge">
<title>7&#45;&gt;4</title>
<path fill="none" stroke="grey" stroke-width="2" d="M299.87,-359.97C270.96,-350.14 234.43,-337.73 204,-327.39"/>
<polygon fill="grey" stroke="grey" stroke-width="2" points="204.95,-324.01 194.35,-324.11 202.7,-330.64 204.95,-324.01"/>
</g>
<!-- 7&#45;&gt;11 -->
<g id="edge17" class="edge">
<title>7&#45;&gt;11</title>
<path fill="none" stroke="grey" stroke-width="2" d="M333.69,-359.7C325.69,-351.22 315.93,-340.86 307.18,-331.58"/>
<polygon fill="grey" stroke="grey" stroke-width="2" points="309.53,-328.98 300.13,-324.1 304.44,-333.78 309.53,-328.98"/>
</g>
<!-- 7&#45;&gt;13 -->
<g id="edge20" class="edge">
<title>7&#45;&gt;13</title>
<path fill="none" stroke="grey" stroke-width="2" d="M368.79,-359.7C378.17,-351.05 389.68,-340.45 399.91,-331.03"/>
<polygon fill="grey" stroke="grey" stroke-width="2" points="402.45,-333.45 407.43,-324.1 397.7,-328.3 402.45,-333.45"/>
</g>
<!-- 8 -->
<g id="node9" class="node">
<title>8</title>
<path fill="none" stroke="#d87556" stroke-width="2" stroke-dasharray="5,2" d="M513,-468C513,-468 421,-468 421,-468 415,-468 409,-462 409,-456 409,-456 409,-444 409,-444 409,-438 415,-432 421,-432 421,-432 513,-432 513,-432 519,-432 525,-438 525,-444 525,-444 525,-456 525,-456 525,-462 519,-468 513,-468"/>
<text text-anchor="middle" x="467" y="-447.5" font-family="sans" font-size="10.00">download_PolyA_DB</text>
</g>
<!-- 8&#45;&gt;7 -->
<g id="edge13" class="edge">
<title>8&#45;&gt;7</title>
<path fill="none" stroke="grey" stroke-width="2" d="M438.38,-431.88C423.08,-422.72 404.06,-411.34 387.58,-401.48"/>
<polygon fill="grey" stroke="grey" stroke-width="2" points="389.11,-398.32 378.73,-396.19 385.52,-404.33 389.11,-398.32"/>
</g>
<!-- 9 -->
<g id="node10" class="node">
<title>9</title>
<path fill="none" stroke="#56d89a" stroke-width="2" stroke-dasharray="5,2" d="M378.5,-468C378.5,-468 309.5,-468 309.5,-468 303.5,-468 297.5,-462 297.5,-456 297.5,-456 297.5,-444 297.5,-444 297.5,-438 303.5,-432 309.5,-432 309.5,-432 378.5,-432 378.5,-432 384.5,-432 390.5,-438 390.5,-444 390.5,-444 390.5,-456 390.5,-456 390.5,-462 384.5,-468 378.5,-468"/>
<text text-anchor="middle" x="344" y="-453" font-family="sans" font-size="10.00">genomepy</text>
<text text-anchor="middle" x="344" y="-442" font-family="sans" font-size="10.00">assembly: hg19</text>
</g>
<!-- 9&#45;&gt;7 -->
<g id="edge14" class="edge">
<title>9&#45;&gt;7</title>
<path fill="none" stroke="grey" stroke-width="2" d="M345.48,-431.7C346.14,-423.98 346.94,-414.71 347.68,-406.11"/>
<polygon fill="grey" stroke="grey" stroke-width="2" points="351.17,-406.37 348.53,-396.1 344.19,-405.77 351.17,-406.37"/>
</g>
<!-- 10 -->
<g id="node11" class="node">
<title>10</title>
<path fill="none" stroke="#56d8b9" stroke-width="2" d="M364,-252C364,-252 204,-252 204,-252 198,-252 192,-246 192,-240 192,-240 192,-228 192,-228 192,-222 198,-216 204,-216 204,-216 364,-216 364,-216 370,-216 376,-222 376,-228 376,-228 376,-240 376,-240 376,-246 370,-252 364,-252"/>
<text text-anchor="middle" x="284" y="-237" font-family="sans" font-size="10.00">MAPS_GCP</text>
<text text-anchor="middle" x="284" y="-226" font-family="sans" font-size="10.00">variant_subset: PolyADB&#45;hexamer</text>
</g>
<!-- 10&#45;&gt;2 -->
<g id="edge7" class="edge">
<title>10&#45;&gt;2</title>
<path fill="none" stroke="grey" stroke-width="2" d="M273.37,-215.7C268.37,-207.56 262.31,-197.69 256.79,-188.7"/>
<polygon fill="grey" stroke="grey" stroke-width="2" points="259.72,-186.79 251.51,-180.1 253.76,-190.46 259.72,-186.79"/>
</g>
<!-- 15 -->
<g id="node16" class="node">
<title>15</title>
<path fill="none" stroke="#b6d856" stroke-width="2" d="M397,-180C397,-180 321,-180 321,-180 315,-180 309,-174 309,-168 309,-168 309,-156 309,-156 309,-150 315,-144 321,-144 321,-144 397,-144 397,-144 403,-144 409,-150 409,-156 409,-156 409,-168 409,-168 409,-174 403,-180 397,-180"/>
<text text-anchor="middle" x="359" y="-165" font-family="sans" font-size="10.00">plot_single</text>
<text text-anchor="middle" x="359" y="-154" font-family="sans" font-size="10.00">run_location: gcp</text>
</g>
<!-- 10&#45;&gt;15 -->
<g id="edge22" class="edge">
<title>10&#45;&gt;15</title>
<path fill="none" stroke="grey" stroke-width="2" d="M302.54,-215.7C311.8,-207.05 323.16,-196.45 333.26,-187.03"/>
<polygon fill="grey" stroke="grey" stroke-width="2" points="335.75,-189.49 340.67,-180.1 330.98,-184.37 335.75,-189.49"/>
</g>
<!-- 11&#45;&gt;10 -->
<g id="edge15" class="edge">
<title>11&#45;&gt;10</title>
<path fill="none" stroke="grey" stroke-width="2" d="M284,-287.7C284,-279.98 284,-270.71 284,-262.11"/>
<polygon fill="grey" stroke="grey" stroke-width="2" points="287.5,-262.1 284,-252.1 280.5,-262.1 287.5,-262.1"/>
</g>
<!-- 12 -->
<g id="node13" class="node">
<title>12</title>
<path fill="none" stroke="#56d8b9" stroke-width="2" d="M573.5,-252C573.5,-252 406.5,-252 406.5,-252 400.5,-252 394.5,-246 394.5,-240 394.5,-240 394.5,-228 394.5,-228 394.5,-222 400.5,-216 406.5,-216 406.5,-216 573.5,-216 573.5,-216 579.5,-216 585.5,-222 585.5,-228 585.5,-228 585.5,-240 585.5,-240 585.5,-246 579.5,-252 573.5,-252"/>
<text text-anchor="middle" x="490" y="-237" font-family="sans" font-size="10.00">MAPS_GCP</text>
<text text-anchor="middle" x="490" y="-226" font-family="sans" font-size="10.00">variant_subset: PolyADB&#45;conserved</text>
</g>
<!-- 12&#45;&gt;2 -->
<g id="edge8" class="edge">
<title>12&#45;&gt;2</title>
<path fill="none" stroke="grey" stroke-width="2" d="M428.35,-215.95C393.48,-206.27 348.83,-193.82 300.84,-180.23"/>
<polygon fill="grey" stroke="grey" stroke-width="2" points="301.78,-176.86 291.2,-177.5 299.87,-183.59 301.78,-176.86"/>
</g>
<!-- 16 -->
<g id="node17" class="node">
<title>16</title>
<path fill="none" stroke="#b6d856" stroke-width="2" d="M521,-180C521,-180 445,-180 445,-180 439,-180 433,-174 433,-168 433,-168 433,-156 433,-156 433,-150 439,-144 445,-144 445,-144 521,-144 521,-144 527,-144 533,-150 533,-156 533,-156 533,-168 533,-168 533,-174 527,-180 521,-180"/>
<text text-anchor="middle" x="483" y="-165" font-family="sans" font-size="10.00">plot_single</text>
<text text-anchor="middle" x="483" y="-154" font-family="sans" font-size="10.00">run_location: gcp</text>
</g>
<!-- 12&#45;&gt;16 -->
<g id="edge23" class="edge">
<title>12&#45;&gt;16</title>
<path fill="none" stroke="grey" stroke-width="2" d="M488.27,-215.7C487.5,-207.98 486.57,-198.71 485.71,-190.11"/>
<polygon fill="grey" stroke="grey" stroke-width="2" points="489.19,-189.71 484.71,-180.1 482.22,-190.4 489.19,-189.71"/>
</g>
<!-- 13&#45;&gt;12 -->
<g id="edge18" class="edge">
<title>13&#45;&gt;12</title>
<path fill="none" stroke="grey" stroke-width="2" d="M441.82,-287.7C449.57,-279.22 459.04,-268.86 467.52,-259.58"/>
<polygon fill="grey" stroke="grey" stroke-width="2" points="470.2,-261.85 474.36,-252.1 465.03,-257.12 470.2,-261.85"/>
</g>
<!-- 14&#45;&gt;1 -->
<g id="edge3" class="edge">
<title>14&#45;&gt;1</title>
<path fill="none" stroke="grey" stroke-width="2" d="M157.23,-143.88C189.83,-131.8 232.9,-115.85 263.18,-104.64"/>
<polygon fill="grey" stroke="grey" stroke-width="2" points="264.76,-107.78 272.92,-101.03 262.33,-101.22 264.76,-107.78"/>
</g>
<!-- 15&#45;&gt;1 -->
<g id="edge4" class="edge">
<title>15&#45;&gt;1</title>
<path fill="none" stroke="grey" stroke-width="2" d="M344.42,-143.7C337.34,-135.3 328.72,-125.07 320.95,-115.86"/>
<polygon fill="grey" stroke="grey" stroke-width="2" points="323.54,-113.49 314.42,-108.1 318.19,-118.01 323.54,-113.49"/>
</g>
<!-- 16&#45;&gt;1 -->
<g id="edge5" class="edge">
<title>16&#45;&gt;1</title>
<path fill="none" stroke="grey" stroke-width="2" d="M438.23,-143.88C406.96,-131.91 365.72,-116.14 336.45,-104.94"/>
<polygon fill="grey" stroke="grey" stroke-width="2" points="337.6,-101.64 327.01,-101.33 335.1,-108.17 337.6,-101.64"/>
</g>
</g>
</svg>
