<?xml version="1.0" encoding="UTF-8" standalone="no"?>
<!DOCTYPE svg PUBLIC "-//W3C//DTD SVG 1.1//EN"
 "http://www.w3.org/Graphics/SVG/1.1/DTD/svg11.dtd">
<!-- Generated by graphviz version 2.42.3 (20191010.1750)
 -->
<!-- Title: snakemake_dag Pages: 1 -->
<svg width="359pt" height="476pt"
 viewBox="0.00 0.00 358.50 476.00" xmlns="http://www.w3.org/2000/svg" xmlns:xlink="http://www.w3.org/1999/xlink">
<g id="graph0" class="graph" transform="scale(1 1) rotate(0) translate(4 472)">
<title>snakemake_dag</title>
<polygon fill="white" stroke="transparent" points="-4,4 -4,-472 354.5,-472 354.5,4 -4,4"/>
<!-- 0 -->
<g id="node1" class="node">
<title>0</title>
<path fill="none" stroke="#567bd8" stroke-width="2" d="M236,-36C236,-36 206,-36 206,-36 200,-36 194,-30 194,-24 194,-24 194,-12 194,-12 194,-6 200,0 206,0 206,0 236,0 236,0 242,0 248,-6 248,-12 248,-12 248,-24 248,-24 248,-30 242,-36 236,-36"/>
<text text-anchor="middle" x="221" y="-15.5" font-family="sans" font-size="10.00">all</text>
</g>
<!-- 1 -->
<g id="node2" class="node">
<title>1</title>
<path fill="none" stroke="#d8a456" stroke-width="2" d="M236,-108C236,-108 206,-108 206,-108 200,-108 194,-102 194,-96 194,-96 194,-84 194,-84 194,-78 200,-72 206,-72 206,-72 236,-72 236,-72 242,-72 248,-78 248,-84 248,-84 248,-96 248,-96 248,-102 242,-108 236,-108"/>
<text text-anchor="middle" x="221" y="-87.5" font-family="sans" font-size="10.00">plots</text>
</g>
<!-- 1&#45;&gt;0 -->
<g id="edge1" class="edge">
<title>1&#45;&gt;0</title>
<path fill="none" stroke="grey" stroke-width="2" d="M221,-71.7C221,-63.98 221,-54.71 221,-46.11"/>
<polygon fill="grey" stroke="grey" stroke-width="2" points="224.5,-46.1 221,-36.1 217.5,-46.1 224.5,-46.1"/>
</g>
<!-- 2 -->
<g id="node3" class="node">
<title>2</title>
<path fill="none" stroke="#56d8a2" stroke-width="2" d="M249,-180C249,-180 193,-180 193,-180 187,-180 181,-174 181,-168 181,-168 181,-156 181,-156 181,-150 187,-144 193,-144 193,-144 249,-144 249,-144 255,-144 261,-150 261,-156 261,-156 261,-168 261,-168 261,-174 255,-180 249,-180"/>
<text text-anchor="middle" x="221" y="-159.5" font-family="sans" font-size="10.00">gather_MAPS</text>
</g>
<!-- 2&#45;&gt;1 -->
<g id="edge2" class="edge">
<title>2&#45;&gt;1</title>
<path fill="none" stroke="grey" stroke-width="2" d="M221,-143.7C221,-135.98 221,-126.71 221,-118.11"/>
<polygon fill="grey" stroke="grey" stroke-width="2" points="224.5,-118.1 221,-108.1 217.5,-118.1 224.5,-118.1"/>
</g>
<!-- 3 -->
<g id="node4" class="node">
<title>3</title>
<path fill="none" stroke="#56d87b" stroke-width="2" d="M243.5,-252C243.5,-252 198.5,-252 198.5,-252 192.5,-252 186.5,-246 186.5,-240 186.5,-240 186.5,-228 186.5,-228 186.5,-222 192.5,-216 198.5,-216 198.5,-216 243.5,-216 243.5,-216 249.5,-216 255.5,-222 255.5,-228 255.5,-228 255.5,-240 255.5,-240 255.5,-246 249.5,-252 243.5,-252"/>
<text text-anchor="middle" x="221" y="-231.5" font-family="sans" font-size="10.00">MAPS_GCP</text>
</g>
<!-- 3&#45;&gt;2 -->
<g id="edge3" class="edge">
<title>3&#45;&gt;2</title>
<path fill="none" stroke="grey" stroke-width="2" d="M221,-215.7C221,-207.98 221,-198.71 221,-190.11"/>
<polygon fill="grey" stroke="grey" stroke-width="2" points="224.5,-190.1 221,-180.1 217.5,-190.1 224.5,-190.1"/>
</g>
<!-- 4 -->
<g id="node5" class="node">
<title>4</title>
<path fill="none" stroke="#78d856" stroke-width="2" d="M255,-324C255,-324 187,-324 187,-324 181,-324 175,-318 175,-312 175,-312 175,-300 175,-300 175,-294 181,-288 187,-288 187,-288 255,-288 255,-288 261,-288 267,-294 267,-300 267,-300 267,-312 267,-312 267,-318 261,-324 255,-324"/>
<text text-anchor="middle" x="221" y="-303.5" font-family="sans" font-size="10.00">convert_bedfile</text>
</g>
<!-- 4&#45;&gt;3 -->
<g id="edge4" class="edge">
<title>4&#45;&gt;3</title>
<path fill="none" stroke="grey" stroke-width="2" d="M221,-287.7C221,-279.98 221,-270.71 221,-262.11"/>
<polygon fill="grey" stroke="grey" stroke-width="2" points="224.5,-262.1 221,-252.1 217.5,-262.1 224.5,-262.1"/>
</g>
<!-- 5 -->
<g id="node6" class="node">
<title>5</title>
<path fill="none" stroke="#d85656" stroke-width="2" d="M195,-396C195,-396 115,-396 115,-396 109,-396 103,-390 103,-384 103,-384 103,-372 103,-372 103,-366 109,-360 115,-360 115,-360 195,-360 195,-360 201,-360 207,-366 207,-372 207,-372 207,-384 207,-384 207,-390 201,-396 195,-396"/>
<text text-anchor="middle" x="155" y="-375.5" font-family="sans" font-size="10.00">extract_PolyA_DB</text>
</g>
<!-- 5&#45;&gt;4 -->
<g id="edge5" class="edge">
<title>5&#45;&gt;4</title>
<path fill="none" stroke="grey" stroke-width="2" d="M171.31,-359.7C179.31,-351.22 189.07,-340.86 197.82,-331.58"/>
<polygon fill="grey" stroke="grey" stroke-width="2" points="200.56,-333.78 204.87,-324.1 195.47,-328.98 200.56,-333.78"/>
</g>
<!-- 6 -->
<g id="node7" class="node">
<title>6</title>
<path fill="none" stroke="#d87d56" stroke-width="2" d="M104,-468C104,-468 12,-468 12,-468 6,-468 0,-462 0,-456 0,-456 0,-444 0,-444 0,-438 6,-432 12,-432 12,-432 104,-432 104,-432 110,-432 116,-438 116,-444 116,-444 116,-456 116,-456 116,-462 110,-468 104,-468"/>
<text text-anchor="middle" x="58" y="-447.5" font-family="sans" font-size="10.00">download_PolyA_DB</text>
</g>
<!-- 6&#45;&gt;5 -->
<g id="edge7" class="edge">
<title>6&#45;&gt;5</title>
<path fill="none" stroke="grey" stroke-width="2" d="M81.98,-431.7C94.31,-422.8 109.52,-411.82 122.85,-402.2"/>
<polygon fill="grey" stroke="grey" stroke-width="2" points="125.24,-404.79 131.3,-396.1 121.14,-399.12 125.24,-404.79"/>
</g>
<!-- 7 -->
<g id="node8" class="node">
<title>7</title>
<path fill="none" stroke="#9fd856" stroke-width="2" d="M190,-468C190,-468 146,-468 146,-468 140,-468 134,-462 134,-456 134,-456 134,-444 134,-444 134,-438 140,-432 146,-432 146,-432 190,-432 190,-432 196,-432 202,-438 202,-444 202,-444 202,-456 202,-456 202,-462 196,-468 190,-468"/>
<text text-anchor="middle" x="168" y="-447.5" font-family="sans" font-size="10.00">genomepy</text>
</g>
<!-- 7&#45;&gt;5 -->
<g id="edge8" class="edge">
<title>7&#45;&gt;5</title>
<path fill="none" stroke="grey" stroke-width="2" d="M164.79,-431.7C163.35,-423.98 161.63,-414.71 160.04,-406.11"/>
<polygon fill="grey" stroke="grey" stroke-width="2" points="163.44,-405.3 158.18,-396.1 156.56,-406.58 163.44,-405.3"/>
</g>
<!-- 8 -->
<g id="node9" class="node">
<title>8</title>
<path fill="none" stroke="#d8c356" stroke-width="2" d="M338.5,-396C338.5,-396 237.5,-396 237.5,-396 231.5,-396 225.5,-390 225.5,-384 225.5,-384 225.5,-372 225.5,-372 225.5,-366 231.5,-360 237.5,-360 237.5,-360 338.5,-360 338.5,-360 344.5,-360 350.5,-366 350.5,-372 350.5,-372 350.5,-384 350.5,-384 350.5,-390 344.5,-396 338.5,-396"/>
<text text-anchor="middle" x="288" y="-375.5" font-family="sans" font-size="10.00">extract_Gencode_UTR</text>
</g>
<!-- 8&#45;&gt;4 -->
<g id="edge6" class="edge">
<title>8&#45;&gt;4</title>
<path fill="none" stroke="grey" stroke-width="2" d="M271.44,-359.7C263.32,-351.22 253.41,-340.86 244.53,-331.58"/>
<polygon fill="grey" stroke="grey" stroke-width="2" points="246.81,-328.91 237.37,-324.1 241.76,-333.75 246.81,-328.91"/>
</g>
<!-- 9 -->
<g id="node10" class="node">
<title>9</title>
<path fill="none" stroke="#59d856" stroke-width="2" d="M332,-468C332,-468 244,-468 244,-468 238,-468 232,-462 232,-456 232,-456 232,-444 232,-444 232,-438 238,-432 244,-432 244,-432 332,-432 332,-432 338,-432 344,-438 344,-444 344,-444 344,-456 344,-456 344,-462 338,-468 332,-468"/>
<text text-anchor="middle" x="288" y="-447.5" font-family="sans" font-size="10.00">download_Gencode</text>
</g>
<!-- 9&#45;&gt;8 -->
<g id="edge9" class="edge">
<title>9&#45;&gt;8</title>
<path fill="none" stroke="grey" stroke-width="2" d="M288,-431.7C288,-423.98 288,-414.71 288,-406.11"/>
<polygon fill="grey" stroke="grey" stroke-width="2" points="291.5,-406.1 288,-396.1 284.5,-406.1 291.5,-406.1"/>
</g>
</g>
</svg>
