<?xml version="1.0" encoding="UTF-8" standalone="no"?>
<!DOCTYPE svg PUBLIC "-//W3C//DTD SVG 1.1//EN"
 "http://www.w3.org/Graphics/SVG/1.1/DTD/svg11.dtd">
<!-- Generated by graphviz version 2.42.3 (20191010.1750)
 -->
<!-- Title: snakemake_dag Pages: 1 -->
<svg width="347pt" height="476pt"
 viewBox="0.00 0.00 346.50 476.00" xmlns="http://www.w3.org/2000/svg" xmlns:xlink="http://www.w3.org/1999/xlink">
<g id="graph0" class="graph" transform="scale(1 1) rotate(0) translate(4 472)">
<title>snakemake_dag</title>
<polygon fill="white" stroke="transparent" points="-4,4 -4,-472 342.5,-472 342.5,4 -4,4"/>
<!-- 0 -->
<g id="node1" class="node">
<title>0</title>
<path fill="none" stroke="#56d88a" stroke-width="2" d="M143.5,-36C143.5,-36 113.5,-36 113.5,-36 107.5,-36 101.5,-30 101.5,-24 101.5,-24 101.5,-12 101.5,-12 101.5,-6 107.5,0 113.5,0 113.5,0 143.5,0 143.5,0 149.5,0 155.5,-6 155.5,-12 155.5,-12 155.5,-24 155.5,-24 155.5,-30 149.5,-36 143.5,-36"/>
<text text-anchor="middle" x="128.5" y="-15.5" font-family="sans" font-size="10.00">all</text>
</g>
<!-- 1 -->
<g id="node2" class="node">
<title>1</title>
<path fill="none" stroke="#d87556" stroke-width="2" d="M143.5,-108C143.5,-108 113.5,-108 113.5,-108 107.5,-108 101.5,-102 101.5,-96 101.5,-96 101.5,-84 101.5,-84 101.5,-78 107.5,-72 113.5,-72 113.5,-72 143.5,-72 143.5,-72 149.5,-72 155.5,-78 155.5,-84 155.5,-84 155.5,-96 155.5,-96 155.5,-102 149.5,-108 143.5,-108"/>
<text text-anchor="middle" x="128.5" y="-87.5" font-family="sans" font-size="10.00">plots</text>
</g>
<!-- 1&#45;&gt;0 -->
<g id="edge1" class="edge">
<title>1&#45;&gt;0</title>
<path fill="none" stroke="grey" stroke-width="2" d="M128.5,-71.7C128.5,-63.98 128.5,-54.71 128.5,-46.11"/>
<polygon fill="grey" stroke="grey" stroke-width="2" points="132,-46.1 128.5,-36.1 125,-46.1 132,-46.1"/>
</g>
<!-- 2 -->
<g id="node3" class="node">
<title>2</title>
<path fill="none" stroke="#567bd8" stroke-width="2" d="M110.5,-180C110.5,-180 54.5,-180 54.5,-180 48.5,-180 42.5,-174 42.5,-168 42.5,-168 42.5,-156 42.5,-156 42.5,-150 48.5,-144 54.5,-144 54.5,-144 110.5,-144 110.5,-144 116.5,-144 122.5,-150 122.5,-156 122.5,-156 122.5,-168 122.5,-168 122.5,-174 116.5,-180 110.5,-180"/>
<text text-anchor="middle" x="82.5" y="-159.5" font-family="sans" font-size="10.00">gather_MAPS</text>
</g>
<!-- 2&#45;&gt;1 -->
<g id="edge3" class="edge">
<title>2&#45;&gt;1</title>
<path fill="none" stroke="grey" stroke-width="2" d="M93.87,-143.7C99.22,-135.56 105.7,-125.69 111.61,-116.7"/>
<polygon fill="grey" stroke="grey" stroke-width="2" points="114.69,-118.38 117.26,-108.1 108.84,-114.54 114.69,-118.38"/>
</g>
<!-- 3 -->
<g id="node4" class="node">
<title>3</title>
<path fill="none" stroke="#56c1d8" stroke-width="2" d="M151,-252C151,-252 106,-252 106,-252 100,-252 94,-246 94,-240 94,-240 94,-228 94,-228 94,-222 100,-216 106,-216 106,-216 151,-216 151,-216 157,-216 163,-222 163,-228 163,-228 163,-240 163,-240 163,-246 157,-252 151,-252"/>
<text text-anchor="middle" x="128.5" y="-231.5" font-family="sans" font-size="10.00">MAPS_GCP</text>
</g>
<!-- 3&#45;&gt;2 -->
<g id="edge4" class="edge">
<title>3&#45;&gt;2</title>
<path fill="none" stroke="grey" stroke-width="2" d="M117.13,-215.7C111.78,-207.56 105.3,-197.69 99.39,-188.7"/>
<polygon fill="grey" stroke="grey" stroke-width="2" points="102.16,-186.54 93.74,-180.1 96.31,-190.38 102.16,-186.54"/>
</g>
<!-- 10 -->
<g id="node11" class="node">
<title>10</title>
<path fill="none" stroke="#56d8d0" stroke-width="2" d="M198.5,-180C198.5,-180 152.5,-180 152.5,-180 146.5,-180 140.5,-174 140.5,-168 140.5,-168 140.5,-156 140.5,-156 140.5,-150 146.5,-144 152.5,-144 152.5,-144 198.5,-144 198.5,-144 204.5,-144 210.5,-150 210.5,-156 210.5,-156 210.5,-168 210.5,-168 210.5,-174 204.5,-180 198.5,-180"/>
<text text-anchor="middle" x="175.5" y="-159.5" font-family="sans" font-size="10.00">plot_single</text>
</g>
<!-- 3&#45;&gt;10 -->
<g id="edge11" class="edge">
<title>3&#45;&gt;10</title>
<path fill="none" stroke="grey" stroke-width="2" d="M140.12,-215.7C145.64,-207.47 152.35,-197.48 158.43,-188.42"/>
<polygon fill="grey" stroke="grey" stroke-width="2" points="161.35,-190.36 164.02,-180.1 155.54,-186.46 161.35,-190.36"/>
</g>
<!-- 4 -->
<g id="node5" class="node">
<title>4</title>
<path fill="none" stroke="#88d856" stroke-width="2" d="M177.5,-324C177.5,-324 79.5,-324 79.5,-324 73.5,-324 67.5,-318 67.5,-312 67.5,-312 67.5,-300 67.5,-300 67.5,-294 73.5,-288 79.5,-288 79.5,-288 177.5,-288 177.5,-288 183.5,-288 189.5,-294 189.5,-300 189.5,-300 189.5,-312 189.5,-312 189.5,-318 183.5,-324 177.5,-324"/>
<text text-anchor="middle" x="128.5" y="-303.5" font-family="sans" font-size="10.00">merge_UTR_intervals</text>
</g>
<!-- 4&#45;&gt;3 -->
<g id="edge5" class="edge">
<title>4&#45;&gt;3</title>
<path fill="none" stroke="grey" stroke-width="2" d="M128.5,-287.7C128.5,-279.98 128.5,-270.71 128.5,-262.11"/>
<polygon fill="grey" stroke="grey" stroke-width="2" points="132,-262.1 128.5,-252.1 125,-262.1 132,-262.1"/>
</g>
<!-- 5 -->
<g id="node6" class="node">
<title>5</title>
<path fill="none" stroke="#d8bc56" stroke-width="2" d="M113,-396C113,-396 12,-396 12,-396 6,-396 0,-390 0,-384 0,-384 0,-372 0,-372 0,-366 6,-360 12,-360 12,-360 113,-360 113,-360 119,-360 125,-366 125,-372 125,-372 125,-384 125,-384 125,-390 119,-396 113,-396"/>
<text text-anchor="middle" x="62.5" y="-375.5" font-family="sans" font-size="10.00">extract_Gencode_UTR</text>
</g>
<!-- 5&#45;&gt;4 -->
<g id="edge7" class="edge">
<title>5&#45;&gt;4</title>
<path fill="none" stroke="grey" stroke-width="2" d="M78.81,-359.7C86.81,-351.22 96.57,-340.86 105.32,-331.58"/>
<polygon fill="grey" stroke="grey" stroke-width="2" points="108.06,-333.78 112.37,-324.1 102.97,-328.98 108.06,-333.78"/>
</g>
<!-- 6 -->
<g id="node7" class="node">
<title>6</title>
<path fill="none" stroke="#68d856" stroke-width="2" d="M106.5,-468C106.5,-468 18.5,-468 18.5,-468 12.5,-468 6.5,-462 6.5,-456 6.5,-456 6.5,-444 6.5,-444 6.5,-438 12.5,-432 18.5,-432 18.5,-432 106.5,-432 106.5,-432 112.5,-432 118.5,-438 118.5,-444 118.5,-444 118.5,-456 118.5,-456 118.5,-462 112.5,-468 106.5,-468"/>
<text text-anchor="middle" x="62.5" y="-447.5" font-family="sans" font-size="10.00">download_Gencode</text>
</g>
<!-- 6&#45;&gt;5 -->
<g id="edge8" class="edge">
<title>6&#45;&gt;5</title>
<path fill="none" stroke="grey" stroke-width="2" d="M62.5,-431.7C62.5,-423.98 62.5,-414.71 62.5,-406.11"/>
<polygon fill="grey" stroke="grey" stroke-width="2" points="66,-406.1 62.5,-396.1 59,-406.1 66,-406.1"/>
</g>
<!-- 7 -->
<g id="node8" class="node">
<title>7</title>
<path fill="none" stroke="#569ad8" stroke-width="2" d="M235.5,-396C235.5,-396 155.5,-396 155.5,-396 149.5,-396 143.5,-390 143.5,-384 143.5,-384 143.5,-372 143.5,-372 143.5,-366 149.5,-360 155.5,-360 155.5,-360 235.5,-360 235.5,-360 241.5,-360 247.5,-366 247.5,-372 247.5,-372 247.5,-384 247.5,-384 247.5,-390 241.5,-396 235.5,-396"/>
<text text-anchor="middle" x="195.5" y="-375.5" font-family="sans" font-size="10.00">extract_PolyA_DB</text>
</g>
<!-- 7&#45;&gt;4 -->
<g id="edge6" class="edge">
<title>7&#45;&gt;4</title>
<path fill="none" stroke="grey" stroke-width="2" d="M178.94,-359.7C170.82,-351.22 160.91,-340.86 152.03,-331.58"/>
<polygon fill="grey" stroke="grey" stroke-width="2" points="154.31,-328.91 144.87,-324.1 149.26,-333.75 154.31,-328.91"/>
</g>
<!-- 8 -->
<g id="node9" class="node">
<title>8</title>
<path fill="none" stroke="#d85656" stroke-width="2" d="M240.5,-468C240.5,-468 148.5,-468 148.5,-468 142.5,-468 136.5,-462 136.5,-456 136.5,-456 136.5,-444 136.5,-444 136.5,-438 142.5,-432 148.5,-432 148.5,-432 240.5,-432 240.5,-432 246.5,-432 252.5,-438 252.5,-444 252.5,-444 252.5,-456 252.5,-456 252.5,-462 246.5,-468 240.5,-468"/>
<text text-anchor="middle" x="194.5" y="-447.5" font-family="sans" font-size="10.00">download_PolyA_DB</text>
</g>
<!-- 8&#45;&gt;7 -->
<g id="edge9" class="edge">
<title>8&#45;&gt;7</title>
<path fill="none" stroke="grey" stroke-width="2" d="M194.75,-431.7C194.86,-423.98 194.99,-414.71 195.11,-406.11"/>
<polygon fill="grey" stroke="grey" stroke-width="2" points="198.61,-406.15 195.26,-396.1 191.61,-406.05 198.61,-406.15"/>
</g>
<!-- 9 -->
<g id="node10" class="node">
<title>9</title>
<path fill="none" stroke="#56d86b" stroke-width="2" d="M326.5,-468C326.5,-468 282.5,-468 282.5,-468 276.5,-468 270.5,-462 270.5,-456 270.5,-456 270.5,-444 270.5,-444 270.5,-438 276.5,-432 282.5,-432 282.5,-432 326.5,-432 326.5,-432 332.5,-432 338.5,-438 338.5,-444 338.5,-444 338.5,-456 338.5,-456 338.5,-462 332.5,-468 326.5,-468"/>
<text text-anchor="middle" x="304.5" y="-447.5" font-family="sans" font-size="10.00">genomepy</text>
</g>
<!-- 9&#45;&gt;7 -->
<g id="edge10" class="edge">
<title>9&#45;&gt;7</title>
<path fill="none" stroke="grey" stroke-width="2" d="M277.84,-431.88C263.72,-422.81 246.19,-411.55 230.94,-401.76"/>
<polygon fill="grey" stroke="grey" stroke-width="2" points="232.57,-398.65 222.27,-396.19 228.79,-404.54 232.57,-398.65"/>
</g>
<!-- 10&#45;&gt;1 -->
<g id="edge2" class="edge">
<title>10&#45;&gt;1</title>
<path fill="none" stroke="grey" stroke-width="2" d="M163.88,-143.7C158.36,-135.47 151.65,-125.48 145.57,-116.42"/>
<polygon fill="grey" stroke="grey" stroke-width="2" points="148.46,-114.46 139.98,-108.1 142.65,-118.36 148.46,-114.46"/>
</g>
</g>
</svg>
