<?xml version="1.0" encoding="UTF-8" standalone="no"?>
<!DOCTYPE svg PUBLIC "-//W3C//DTD SVG 1.1//EN"
 "http://www.w3.org/Graphics/SVG/1.1/DTD/svg11.dtd">
<!-- Generated by graphviz version 2.42.3 (20191010.1750)
 -->
<!-- Title: snakemake_dag Pages: 1 -->
<svg width="347pt" height="404pt"
 viewBox="0.00 0.00 346.50 404.00" xmlns="http://www.w3.org/2000/svg" xmlns:xlink="http://www.w3.org/1999/xlink">
<g id="graph0" class="graph" transform="scale(1 1) rotate(0) translate(4 400)">
<title>snakemake_dag</title>
<polygon fill="white" stroke="transparent" points="-4,4 -4,-400 342.5,-400 342.5,4 -4,4"/>
<!-- 0 -->
<g id="node1" class="node">
<title>0</title>
<path fill="none" stroke="#d85656" stroke-width="2" d="M143.5,-36C143.5,-36 113.5,-36 113.5,-36 107.5,-36 101.5,-30 101.5,-24 101.5,-24 101.5,-12 101.5,-12 101.5,-6 107.5,0 113.5,0 113.5,0 143.5,0 143.5,0 149.5,0 155.5,-6 155.5,-12 155.5,-12 155.5,-24 155.5,-24 155.5,-30 149.5,-36 143.5,-36"/>
<text text-anchor="middle" x="128.5" y="-15.5" font-family="sans" font-size="10.00">all</text>
</g>
<!-- 1 -->
<g id="node2" class="node">
<title>1</title>
<path fill="none" stroke="#567bd8" stroke-width="2" d="M143.5,-108C143.5,-108 113.5,-108 113.5,-108 107.5,-108 101.5,-102 101.5,-96 101.5,-96 101.5,-84 101.5,-84 101.5,-78 107.5,-72 113.5,-72 113.5,-72 143.5,-72 143.5,-72 149.5,-72 155.5,-78 155.5,-84 155.5,-84 155.5,-96 155.5,-96 155.5,-102 149.5,-108 143.5,-108"/>
<text text-anchor="middle" x="128.5" y="-87.5" font-family="sans" font-size="10.00">MAPS</text>
</g>
<!-- 1&#45;&gt;0 -->
<g id="edge1" class="edge">
<title>1&#45;&gt;0</title>
<path fill="none" stroke="grey" stroke-width="2" d="M128.5,-71.7C128.5,-63.98 128.5,-54.71 128.5,-46.11"/>
<polygon fill="grey" stroke="grey" stroke-width="2" points="132,-46.1 128.5,-36.1 125,-46.1 132,-46.1"/>
</g>
<!-- 2 -->
<g id="node3" class="node">
<title>2</title>
<path fill="none" stroke="#b6d856" stroke-width="2" d="M179,-180C179,-180 78,-180 78,-180 72,-180 66,-174 66,-168 66,-168 66,-156 66,-156 66,-150 72,-144 78,-144 78,-144 179,-144 179,-144 185,-144 191,-150 191,-156 191,-156 191,-168 191,-168 191,-174 185,-180 179,-180"/>
<text text-anchor="middle" x="128.5" y="-159.5" font-family="sans" font-size="10.00">count_singletons_GCP</text>
</g>
<!-- 2&#45;&gt;1 -->
<g id="edge2" class="edge">
<title>2&#45;&gt;1</title>
<path fill="none" stroke="grey" stroke-width="2" d="M128.5,-143.7C128.5,-135.98 128.5,-126.71 128.5,-118.11"/>
<polygon fill="grey" stroke="grey" stroke-width="2" points="132,-118.1 128.5,-108.1 125,-118.1 132,-118.1"/>
</g>
<!-- 3 -->
<g id="node4" class="node">
<title>3</title>
<path fill="none" stroke="#d87d56" stroke-width="2" d="M177.5,-252C177.5,-252 79.5,-252 79.5,-252 73.5,-252 67.5,-246 67.5,-240 67.5,-240 67.5,-228 67.5,-228 67.5,-222 73.5,-216 79.5,-216 79.5,-216 177.5,-216 177.5,-216 183.5,-216 189.5,-222 189.5,-228 189.5,-228 189.5,-240 189.5,-240 189.5,-246 183.5,-252 177.5,-252"/>
<text text-anchor="middle" x="128.5" y="-231.5" font-family="sans" font-size="10.00">merge_UTR_intervals</text>
</g>
<!-- 3&#45;&gt;2 -->
<g id="edge3" class="edge">
<title>3&#45;&gt;2</title>
<path fill="none" stroke="grey" stroke-width="2" d="M128.5,-215.7C128.5,-207.98 128.5,-198.71 128.5,-190.11"/>
<polygon fill="grey" stroke="grey" stroke-width="2" points="132,-190.1 128.5,-180.1 125,-190.1 132,-190.1"/>
</g>
<!-- 4 -->
<g id="node5" class="node">
<title>4</title>
<path fill="none" stroke="#8fd856" stroke-width="2" d="M113,-324C113,-324 12,-324 12,-324 6,-324 0,-318 0,-312 0,-312 0,-300 0,-300 0,-294 6,-288 12,-288 12,-288 113,-288 113,-288 119,-288 125,-294 125,-300 125,-300 125,-312 125,-312 125,-318 119,-324 113,-324"/>
<text text-anchor="middle" x="62.5" y="-303.5" font-family="sans" font-size="10.00">extract_Gencode_UTR</text>
</g>
<!-- 4&#45;&gt;3 -->
<g id="edge4" class="edge">
<title>4&#45;&gt;3</title>
<path fill="none" stroke="grey" stroke-width="2" d="M78.81,-287.7C86.81,-279.22 96.57,-268.86 105.32,-259.58"/>
<polygon fill="grey" stroke="grey" stroke-width="2" points="108.06,-261.78 112.37,-252.1 102.97,-256.98 108.06,-261.78"/>
</g>
<!-- 5 -->
<g id="node6" class="node">
<title>5</title>
<path fill="none" stroke="#68d856" stroke-width="2" d="M106.5,-396C106.5,-396 18.5,-396 18.5,-396 12.5,-396 6.5,-390 6.5,-384 6.5,-384 6.5,-372 6.5,-372 6.5,-366 12.5,-360 18.5,-360 18.5,-360 106.5,-360 106.5,-360 112.5,-360 118.5,-366 118.5,-372 118.5,-372 118.5,-384 118.5,-384 118.5,-390 112.5,-396 106.5,-396"/>
<text text-anchor="middle" x="62.5" y="-375.5" font-family="sans" font-size="10.00">download_Gencode</text>
</g>
<!-- 5&#45;&gt;4 -->
<g id="edge6" class="edge">
<title>5&#45;&gt;4</title>
<path fill="none" stroke="grey" stroke-width="2" d="M62.5,-359.7C62.5,-351.98 62.5,-342.71 62.5,-334.11"/>
<polygon fill="grey" stroke="grey" stroke-width="2" points="66,-334.1 62.5,-324.1 59,-334.1 66,-334.1"/>
</g>
<!-- 6 -->
<g id="node7" class="node">
<title>6</title>
<path fill="none" stroke="#d8cb56" stroke-width="2" d="M235.5,-324C235.5,-324 155.5,-324 155.5,-324 149.5,-324 143.5,-318 143.5,-312 143.5,-312 143.5,-300 143.5,-300 143.5,-294 149.5,-288 155.5,-288 155.5,-288 235.5,-288 235.5,-288 241.5,-288 247.5,-294 247.5,-300 247.5,-300 247.5,-312 247.5,-312 247.5,-318 241.5,-324 235.5,-324"/>
<text text-anchor="middle" x="195.5" y="-303.5" font-family="sans" font-size="10.00">extract_PolyA_DB</text>
</g>
<!-- 6&#45;&gt;3 -->
<g id="edge5" class="edge">
<title>6&#45;&gt;3</title>
<path fill="none" stroke="grey" stroke-width="2" d="M178.94,-287.7C170.82,-279.22 160.91,-268.86 152.03,-259.58"/>
<polygon fill="grey" stroke="grey" stroke-width="2" points="154.31,-256.91 144.87,-252.1 149.26,-261.75 154.31,-256.91"/>
</g>
<!-- 7 -->
<g id="node8" class="node">
<title>7</title>
<path fill="none" stroke="#56d892" stroke-width="2" d="M240.5,-396C240.5,-396 148.5,-396 148.5,-396 142.5,-396 136.5,-390 136.5,-384 136.5,-384 136.5,-372 136.5,-372 136.5,-366 142.5,-360 148.5,-360 148.5,-360 240.5,-360 240.5,-360 246.5,-360 252.5,-366 252.5,-372 252.5,-372 252.5,-384 252.5,-384 252.5,-390 246.5,-396 240.5,-396"/>
<text text-anchor="middle" x="194.5" y="-375.5" font-family="sans" font-size="10.00">download_PolyA_DB</text>
</g>
<!-- 7&#45;&gt;6 -->
<g id="edge8" class="edge">
<title>7&#45;&gt;6</title>
<path fill="none" stroke="grey" stroke-width="2" d="M194.75,-359.7C194.86,-351.98 194.99,-342.71 195.11,-334.11"/>
<polygon fill="grey" stroke="grey" stroke-width="2" points="198.61,-334.15 195.26,-324.1 191.61,-334.05 198.61,-334.15"/>
</g>
<!-- 8 -->
<g id="node9" class="node">
<title>8</title>
<path fill="none" stroke="#d8a456" stroke-width="2" d="M326.5,-396C326.5,-396 282.5,-396 282.5,-396 276.5,-396 270.5,-390 270.5,-384 270.5,-384 270.5,-372 270.5,-372 270.5,-366 276.5,-360 282.5,-360 282.5,-360 326.5,-360 326.5,-360 332.5,-360 338.5,-366 338.5,-372 338.5,-372 338.5,-384 338.5,-384 338.5,-390 332.5,-396 326.5,-396"/>
<text text-anchor="middle" x="304.5" y="-375.5" font-family="sans" font-size="10.00">genomepy</text>
</g>
<!-- 8&#45;&gt;6 -->
<g id="edge7" class="edge">
<title>8&#45;&gt;6</title>
<path fill="none" stroke="grey" stroke-width="2" d="M277.84,-359.88C263.72,-350.81 246.19,-339.55 230.94,-329.76"/>
<polygon fill="grey" stroke="grey" stroke-width="2" points="232.57,-326.65 222.27,-324.19 228.79,-332.54 232.57,-326.65"/>
</g>
</g>
</svg>
