<?xml version="1.0" encoding="UTF-8" standalone="no"?>
<!DOCTYPE svg PUBLIC "-//W3C//DTD SVG 1.1//EN"
 "http://www.w3.org/Graphics/SVG/1.1/DTD/svg11.dtd">
<!-- Generated by graphviz version 2.42.3 (20191010.1750)
 -->
<!-- Title: snakemake_dag Pages: 1 -->
<svg width="512pt" height="476pt"
 viewBox="0.00 0.00 511.50 476.00" xmlns="http://www.w3.org/2000/svg" xmlns:xlink="http://www.w3.org/1999/xlink">
<g id="graph0" class="graph" transform="scale(1 1) rotate(0) translate(4 472)">
<title>snakemake_dag</title>
<polygon fill="white" stroke="transparent" points="-4,4 -4,-472 507.5,-472 507.5,4 -4,4"/>
<!-- 0 -->
<g id="node1" class="node">
<title>0</title>
<path fill="none" stroke="#68d856" stroke-width="2" d="M272.5,-36C272.5,-36 242.5,-36 242.5,-36 236.5,-36 230.5,-30 230.5,-24 230.5,-24 230.5,-12 230.5,-12 230.5,-6 236.5,0 242.5,0 242.5,0 272.5,0 272.5,0 278.5,0 284.5,-6 284.5,-12 284.5,-12 284.5,-24 284.5,-24 284.5,-30 278.5,-36 272.5,-36"/>
<text text-anchor="middle" x="257.5" y="-15.5" font-family="sans" font-size="10.00">all</text>
</g>
<!-- 1 -->
<g id="node2" class="node">
<title>1</title>
<path fill="none" stroke="#88d856" stroke-width="2" d="M272.5,-108C272.5,-108 242.5,-108 242.5,-108 236.5,-108 230.5,-102 230.5,-96 230.5,-96 230.5,-84 230.5,-84 230.5,-78 236.5,-72 242.5,-72 242.5,-72 272.5,-72 272.5,-72 278.5,-72 284.5,-78 284.5,-84 284.5,-84 284.5,-96 284.5,-96 284.5,-102 278.5,-108 272.5,-108"/>
<text text-anchor="middle" x="257.5" y="-87.5" font-family="sans" font-size="10.00">MAPS</text>
</g>
<!-- 1&#45;&gt;0 -->
<g id="edge1" class="edge">
<title>1&#45;&gt;0</title>
<path fill="none" stroke="grey" stroke-width="2" d="M257.5,-71.7C257.5,-63.98 257.5,-54.71 257.5,-46.11"/>
<polygon fill="grey" stroke="grey" stroke-width="2" points="261,-46.1 257.5,-36.1 254,-46.1 261,-46.1"/>
</g>
<!-- 2 -->
<g id="node3" class="node">
<title>2</title>
<path fill="none" stroke="#d8b456" stroke-width="2" d="M305.5,-180C305.5,-180 209.5,-180 209.5,-180 203.5,-180 197.5,-174 197.5,-168 197.5,-168 197.5,-156 197.5,-156 197.5,-150 203.5,-144 209.5,-144 209.5,-144 305.5,-144 305.5,-144 311.5,-144 317.5,-150 317.5,-156 317.5,-156 317.5,-168 317.5,-168 317.5,-174 311.5,-180 305.5,-180"/>
<text text-anchor="middle" x="257.5" y="-159.5" font-family="sans" font-size="10.00">clean_variant_counts</text>
</g>
<!-- 2&#45;&gt;1 -->
<g id="edge2" class="edge">
<title>2&#45;&gt;1</title>
<path fill="none" stroke="grey" stroke-width="2" d="M257.5,-143.7C257.5,-135.98 257.5,-126.71 257.5,-118.11"/>
<polygon fill="grey" stroke="grey" stroke-width="2" points="261,-118.1 257.5,-108.1 254,-118.1 261,-118.1"/>
</g>
<!-- 3 -->
<g id="node4" class="node">
<title>3</title>
<path fill="none" stroke="#56d0d8" stroke-width="2" d="M308,-252C308,-252 207,-252 207,-252 201,-252 195,-246 195,-240 195,-240 195,-228 195,-228 195,-222 201,-216 207,-216 207,-216 308,-216 308,-216 314,-216 320,-222 320,-228 320,-228 320,-240 320,-240 320,-246 314,-252 308,-252"/>
<text text-anchor="middle" x="257.5" y="-231.5" font-family="sans" font-size="10.00">count_singletons_GCP</text>
</g>
<!-- 3&#45;&gt;2 -->
<g id="edge3" class="edge">
<title>3&#45;&gt;2</title>
<path fill="none" stroke="grey" stroke-width="2" d="M257.5,-215.7C257.5,-207.98 257.5,-198.71 257.5,-190.11"/>
<polygon fill="grey" stroke="grey" stroke-width="2" points="261,-190.1 257.5,-180.1 254,-190.1 261,-190.1"/>
</g>
<!-- 4 -->
<g id="node5" class="node">
<title>4</title>
<path fill="none" stroke="#d87556" stroke-width="2" d="M306.5,-324C306.5,-324 208.5,-324 208.5,-324 202.5,-324 196.5,-318 196.5,-312 196.5,-312 196.5,-300 196.5,-300 196.5,-294 202.5,-288 208.5,-288 208.5,-288 306.5,-288 306.5,-288 312.5,-288 318.5,-294 318.5,-300 318.5,-300 318.5,-312 318.5,-312 318.5,-318 312.5,-324 306.5,-324"/>
<text text-anchor="middle" x="257.5" y="-303.5" font-family="sans" font-size="10.00">merge_UTR_intervals</text>
</g>
<!-- 4&#45;&gt;3 -->
<g id="edge4" class="edge">
<title>4&#45;&gt;3</title>
<path fill="none" stroke="grey" stroke-width="2" d="M257.5,-287.7C257.5,-279.98 257.5,-270.71 257.5,-262.11"/>
<polygon fill="grey" stroke="grey" stroke-width="2" points="261,-262.1 257.5,-252.1 254,-262.1 261,-262.1"/>
</g>
<!-- 5 -->
<g id="node6" class="node">
<title>5</title>
<path fill="none" stroke="#d89556" stroke-width="2" d="M113,-396C113,-396 12,-396 12,-396 6,-396 0,-390 0,-384 0,-384 0,-372 0,-372 0,-366 6,-360 12,-360 12,-360 113,-360 113,-360 119,-360 125,-366 125,-372 125,-372 125,-384 125,-384 125,-390 119,-396 113,-396"/>
<text text-anchor="middle" x="62.5" y="-375.5" font-family="sans" font-size="10.00">extract_Gencode_UTR</text>
</g>
<!-- 5&#45;&gt;4 -->
<g id="edge7" class="edge">
<title>5&#45;&gt;4</title>
<path fill="none" stroke="grey" stroke-width="2" d="M110.2,-359.88C137.45,-350.09 171.8,-337.77 200.47,-327.47"/>
<polygon fill="grey" stroke="grey" stroke-width="2" points="201.72,-330.74 209.95,-324.07 199.36,-324.15 201.72,-330.74"/>
</g>
<!-- 6 -->
<g id="node7" class="node">
<title>6</title>
<path fill="none" stroke="#56b1d8" stroke-width="2" d="M106.5,-468C106.5,-468 18.5,-468 18.5,-468 12.5,-468 6.5,-462 6.5,-456 6.5,-456 6.5,-444 6.5,-444 6.5,-438 12.5,-432 18.5,-432 18.5,-432 106.5,-432 106.5,-432 112.5,-432 118.5,-438 118.5,-444 118.5,-444 118.5,-456 118.5,-456 118.5,-462 112.5,-468 106.5,-468"/>
<text text-anchor="middle" x="62.5" y="-447.5" font-family="sans" font-size="10.00">download_Gencode</text>
</g>
<!-- 6&#45;&gt;5 -->
<g id="edge9" class="edge">
<title>6&#45;&gt;5</title>
<path fill="none" stroke="grey" stroke-width="2" d="M62.5,-431.7C62.5,-423.98 62.5,-414.71 62.5,-406.11"/>
<polygon fill="grey" stroke="grey" stroke-width="2" points="66,-406.1 62.5,-396.1 59,-406.1 66,-406.1"/>
</g>
<!-- 7 -->
<g id="node8" class="node">
<title>7</title>
<path fill="none" stroke="#56d863" stroke-width="2" d="M235.5,-396C235.5,-396 155.5,-396 155.5,-396 149.5,-396 143.5,-390 143.5,-384 143.5,-384 143.5,-372 143.5,-372 143.5,-366 149.5,-360 155.5,-360 155.5,-360 235.5,-360 235.5,-360 241.5,-360 247.5,-366 247.5,-372 247.5,-372 247.5,-384 247.5,-384 247.5,-390 241.5,-396 235.5,-396"/>
<text text-anchor="middle" x="195.5" y="-375.5" font-family="sans" font-size="10.00">extract_PolyA_DB</text>
</g>
<!-- 7&#45;&gt;4 -->
<g id="edge6" class="edge">
<title>7&#45;&gt;4</title>
<path fill="none" stroke="grey" stroke-width="2" d="M210.83,-359.7C218.26,-351.3 227.32,-341.07 235.48,-331.86"/>
<polygon fill="grey" stroke="grey" stroke-width="2" points="238.34,-333.91 242.35,-324.1 233.1,-329.27 238.34,-333.91"/>
</g>
<!-- 8 -->
<g id="node9" class="node">
<title>8</title>
<path fill="none" stroke="#56d8c1" stroke-width="2" d="M240.5,-468C240.5,-468 148.5,-468 148.5,-468 142.5,-468 136.5,-462 136.5,-456 136.5,-456 136.5,-444 136.5,-444 136.5,-438 142.5,-432 148.5,-432 148.5,-432 240.5,-432 240.5,-432 246.5,-432 252.5,-438 252.5,-444 252.5,-444 252.5,-456 252.5,-456 252.5,-462 246.5,-468 240.5,-468"/>
<text text-anchor="middle" x="194.5" y="-447.5" font-family="sans" font-size="10.00">download_PolyA_DB</text>
</g>
<!-- 8&#45;&gt;7 -->
<g id="edge10" class="edge">
<title>8&#45;&gt;7</title>
<path fill="none" stroke="grey" stroke-width="2" d="M194.75,-431.7C194.86,-423.98 194.99,-414.71 195.11,-406.11"/>
<polygon fill="grey" stroke="grey" stroke-width="2" points="198.61,-406.15 195.26,-396.1 191.61,-406.05 198.61,-406.15"/>
</g>
<!-- 9 -->
<g id="node10" class="node">
<title>9</title>
<path fill="none" stroke="#d8d356" stroke-width="2" d="M326.5,-468C326.5,-468 282.5,-468 282.5,-468 276.5,-468 270.5,-462 270.5,-456 270.5,-456 270.5,-444 270.5,-444 270.5,-438 276.5,-432 282.5,-432 282.5,-432 326.5,-432 326.5,-432 332.5,-432 338.5,-438 338.5,-444 338.5,-444 338.5,-456 338.5,-456 338.5,-462 332.5,-468 326.5,-468"/>
<text text-anchor="middle" x="304.5" y="-447.5" font-family="sans" font-size="10.00">genomepy</text>
</g>
<!-- 9&#45;&gt;7 -->
<g id="edge11" class="edge">
<title>9&#45;&gt;7</title>
<path fill="none" stroke="grey" stroke-width="2" d="M277.84,-431.88C263.72,-422.81 246.19,-411.55 230.94,-401.76"/>
<polygon fill="grey" stroke="grey" stroke-width="2" points="232.57,-398.65 222.27,-396.19 228.79,-404.54 232.57,-398.65"/>
</g>
<!-- 10 -->
<g id="node11" class="node">
<title>10</title>
<path fill="none" stroke="#56d882" stroke-width="2" d="M363,-396C363,-396 278,-396 278,-396 272,-396 266,-390 266,-384 266,-384 266,-372 266,-372 266,-366 272,-360 278,-360 278,-360 363,-360 363,-360 369,-360 375,-366 375,-372 375,-372 375,-384 375,-384 375,-390 369,-396 363,-396"/>
<text text-anchor="middle" x="320.5" y="-375.5" font-family="sans" font-size="10.00">extract_PolyASite2</text>
</g>
<!-- 9&#45;&gt;10 -->
<g id="edge12" class="edge">
<title>9&#45;&gt;10</title>
<path fill="none" stroke="grey" stroke-width="2" d="M308.46,-431.7C310.22,-423.98 312.34,-414.71 314.3,-406.11"/>
<polygon fill="grey" stroke="grey" stroke-width="2" points="317.77,-406.63 316.59,-396.1 310.95,-405.07 317.77,-406.63"/>
</g>
<!-- 10&#45;&gt;4 -->
<g id="edge5" class="edge">
<title>10&#45;&gt;4</title>
<path fill="none" stroke="grey" stroke-width="2" d="M304.93,-359.7C297.3,-351.22 287.98,-340.86 279.62,-331.58"/>
<polygon fill="grey" stroke="grey" stroke-width="2" points="282.19,-329.2 272.89,-324.1 276.98,-333.88 282.19,-329.2"/>
</g>
<!-- 11 -->
<g id="node12" class="node">
<title>11</title>
<path fill="none" stroke="#5673d8" stroke-width="2" d="M466.5,-468C466.5,-468 368.5,-468 368.5,-468 362.5,-468 356.5,-462 356.5,-456 356.5,-456 356.5,-444 356.5,-444 356.5,-438 362.5,-432 368.5,-432 368.5,-432 466.5,-432 466.5,-432 472.5,-432 478.5,-438 478.5,-444 478.5,-444 478.5,-456 478.5,-456 478.5,-462 472.5,-468 466.5,-468"/>
<text text-anchor="middle" x="417.5" y="-447.5" font-family="sans" font-size="10.00">download_PolyASite2</text>
</g>
<!-- 11&#45;&gt;10 -->
<g id="edge13" class="edge">
<title>11&#45;&gt;10</title>
<path fill="none" stroke="grey" stroke-width="2" d="M393.52,-431.7C381.19,-422.8 365.98,-411.82 352.65,-402.2"/>
<polygon fill="grey" stroke="grey" stroke-width="2" points="354.36,-399.12 344.2,-396.1 350.26,-404.79 354.36,-399.12"/>
</g>
<!-- 12 -->
<g id="node13" class="node">
<title>12</title>
<path fill="none" stroke="#56d8a2" stroke-width="2" d="M491.5,-396C491.5,-396 405.5,-396 405.5,-396 399.5,-396 393.5,-390 393.5,-384 393.5,-384 393.5,-372 393.5,-372 393.5,-366 399.5,-360 405.5,-360 405.5,-360 491.5,-360 491.5,-360 497.5,-360 503.5,-366 503.5,-372 503.5,-372 503.5,-384 503.5,-384 503.5,-390 497.5,-396 491.5,-396"/>
<text text-anchor="middle" x="448.5" y="-375.5" font-family="sans" font-size="10.00">download_chainfile</text>
</g>
<!-- 12&#45;&gt;4 -->
<g id="edge8" class="edge">
<title>12&#45;&gt;4</title>
<path fill="none" stroke="grey" stroke-width="2" d="M401.78,-359.88C375.2,-350.14 341.74,-337.87 313.73,-327.61"/>
<polygon fill="grey" stroke="grey" stroke-width="2" points="314.67,-324.22 304.07,-324.07 312.26,-330.8 314.67,-324.22"/>
</g>
</g>
</svg>
