<?xml version="1.0" encoding="UTF-8" standalone="no"?>
<!DOCTYPE svg PUBLIC "-//W3C//DTD SVG 1.1//EN"
 "http://www.w3.org/Graphics/SVG/1.1/DTD/svg11.dtd">
<!-- Generated by graphviz version 2.42.3 (20191010.1750)
 -->
<!-- Title: snakemake_dag Pages: 1 -->
<svg width="742pt" height="476pt"
 viewBox="0.00 0.00 742.00 476.00" xmlns="http://www.w3.org/2000/svg" xmlns:xlink="http://www.w3.org/1999/xlink">
<g id="graph0" class="graph" transform="scale(1 1) rotate(0) translate(4 472)">
<title>snakemake_dag</title>
<polygon fill="white" stroke="transparent" points="-4,4 -4,-472 738,-472 738,4 -4,4"/>
<!-- 0 -->
<g id="node1" class="node">
<title>0</title>
<path fill="none" stroke="#56b1d8" stroke-width="2" stroke-dasharray="5,2" d="M388,-36C388,-36 358,-36 358,-36 352,-36 346,-30 346,-24 346,-24 346,-12 346,-12 346,-6 352,0 358,0 358,0 388,0 388,0 394,0 400,-6 400,-12 400,-12 400,-24 400,-24 400,-30 394,-36 388,-36"/>
<text text-anchor="middle" x="373" y="-15.5" font-family="sans" font-size="10.00">all</text>
</g>
<!-- 1 -->
<g id="node2" class="node">
<title>1</title>
<path fill="none" stroke="#bed856" stroke-width="2" stroke-dasharray="5,2" d="M260,-108C260,-108 154,-108 154,-108 148,-108 142,-102 142,-96 142,-96 142,-84 142,-84 142,-78 148,-72 154,-72 154,-72 260,-72 260,-72 266,-72 272,-78 272,-84 272,-84 272,-96 272,-96 272,-102 266,-108 260,-108"/>
<text text-anchor="middle" x="207" y="-93" font-family="sans" font-size="10.00">MAPS</text>
<text text-anchor="middle" x="207" y="-82" font-family="sans" font-size="10.00">aggregation: worst_csq</text>
</g>
<!-- 1&#45;&gt;0 -->
<g id="edge1" class="edge">
<title>1&#45;&gt;0</title>
<path fill="none" stroke="grey" stroke-width="2" d="M247.61,-71.88C274.79,-60.41 310.27,-45.45 336.55,-34.37"/>
<polygon fill="grey" stroke="grey" stroke-width="2" points="337.93,-37.59 345.78,-30.48 335.21,-31.14 337.93,-37.59"/>
</g>
<!-- 2 -->
<g id="node3" class="node">
<title>2</title>
<path fill="none" stroke="#d8b456" stroke-width="2" stroke-dasharray="5,2" d="M421,-180C421,-180 325,-180 325,-180 319,-180 313,-174 313,-168 313,-168 313,-156 313,-156 313,-150 319,-144 325,-144 325,-144 421,-144 421,-144 427,-144 433,-150 433,-156 433,-156 433,-168 433,-168 433,-174 427,-180 421,-180"/>
<text text-anchor="middle" x="373" y="-165" font-family="sans" font-size="10.00">clean_variant_counts</text>
<text text-anchor="middle" x="373" y="-154" font-family="sans" font-size="10.00">run_location: gcp</text>
</g>
<!-- 2&#45;&gt;1 -->
<g id="edge4" class="edge">
<title>2&#45;&gt;1</title>
<path fill="none" stroke="grey" stroke-width="2" d="M332.39,-143.88C309.6,-134.26 280.97,-122.19 256.83,-112.01"/>
<polygon fill="grey" stroke="grey" stroke-width="2" points="258.05,-108.73 247.48,-108.07 255.33,-115.18 258.05,-108.73"/>
</g>
<!-- 14 -->
<g id="node15" class="node">
<title>14</title>
<path fill="none" stroke="#bed856" stroke-width="2" stroke-dasharray="5,2" d="M443.5,-108C443.5,-108 302.5,-108 302.5,-108 296.5,-108 290.5,-102 290.5,-96 290.5,-96 290.5,-84 290.5,-84 290.5,-78 296.5,-72 302.5,-72 302.5,-72 443.5,-72 443.5,-72 449.5,-72 455.5,-78 455.5,-84 455.5,-84 455.5,-96 455.5,-96 455.5,-102 449.5,-108 443.5,-108"/>
<text text-anchor="middle" x="373" y="-93" font-family="sans" font-size="10.00">MAPS</text>
<text text-anchor="middle" x="373" y="-82" font-family="sans" font-size="10.00">aggregation: database&#45;feature</text>
</g>
<!-- 2&#45;&gt;14 -->
<g id="edge16" class="edge">
<title>2&#45;&gt;14</title>
<path fill="none" stroke="grey" stroke-width="2" d="M373,-143.7C373,-135.98 373,-126.71 373,-118.11"/>
<polygon fill="grey" stroke="grey" stroke-width="2" points="376.5,-118.1 373,-108.1 369.5,-118.1 376.5,-118.1"/>
</g>
<!-- 15 -->
<g id="node16" class="node">
<title>15</title>
<path fill="none" stroke="#bed856" stroke-width="2" stroke-dasharray="5,2" d="M722,-108C722,-108 486,-108 486,-108 480,-108 474,-102 474,-96 474,-96 474,-84 474,-84 474,-78 480,-72 486,-72 486,-72 722,-72 722,-72 728,-72 734,-78 734,-84 734,-84 734,-96 734,-96 734,-102 728,-108 722,-108"/>
<text text-anchor="middle" x="604" y="-93" font-family="sans" font-size="10.00">MAPS</text>
<text text-anchor="middle" x="604" y="-82" font-family="sans" font-size="10.00">aggregation: hexamer_motif_bin&#45;most_expressed</text>
</g>
<!-- 2&#45;&gt;15 -->
<g id="edge17" class="edge">
<title>2&#45;&gt;15</title>
<path fill="none" stroke="grey" stroke-width="2" d="M429.21,-143.97C461.91,-134.06 503.3,-121.51 537.6,-111.12"/>
<polygon fill="grey" stroke="grey" stroke-width="2" points="538.98,-114.36 547.53,-108.11 536.95,-107.66 538.98,-114.36"/>
</g>
<!-- 3 -->
<g id="node4" class="node">
<title>3</title>
<path fill="none" stroke="#56d882" stroke-width="2" stroke-dasharray="5,2" d="M423.5,-252C423.5,-252 322.5,-252 322.5,-252 316.5,-252 310.5,-246 310.5,-240 310.5,-240 310.5,-228 310.5,-228 310.5,-222 316.5,-216 322.5,-216 322.5,-216 423.5,-216 423.5,-216 429.5,-216 435.5,-222 435.5,-228 435.5,-228 435.5,-240 435.5,-240 435.5,-246 429.5,-252 423.5,-252"/>
<text text-anchor="middle" x="373" y="-237" font-family="sans" font-size="10.00">count_singletons_GCP</text>
<text text-anchor="middle" x="373" y="-226" font-family="sans" font-size="10.00">chr_subset: chr1</text>
</g>
<!-- 3&#45;&gt;2 -->
<g id="edge5" class="edge">
<title>3&#45;&gt;2</title>
<path fill="none" stroke="grey" stroke-width="2" d="M373,-215.7C373,-207.98 373,-198.71 373,-190.11"/>
<polygon fill="grey" stroke="grey" stroke-width="2" points="376.5,-190.1 373,-180.1 369.5,-190.1 376.5,-190.1"/>
</g>
<!-- 4 -->
<g id="node5" class="node">
<title>4</title>
<path fill="none" stroke="#9fd856" stroke-width="2" stroke-dasharray="5,2" d="M422,-324C422,-324 324,-324 324,-324 318,-324 312,-318 312,-312 312,-312 312,-300 312,-300 312,-294 318,-288 324,-288 324,-288 422,-288 422,-288 428,-288 434,-294 434,-300 434,-300 434,-312 434,-312 434,-318 428,-324 422,-324"/>
<text text-anchor="middle" x="373" y="-303.5" font-family="sans" font-size="10.00">merge_UTR_intervals</text>
</g>
<!-- 4&#45;&gt;3 -->
<g id="edge6" class="edge">
<title>4&#45;&gt;3</title>
<path fill="none" stroke="grey" stroke-width="2" d="M373,-287.7C373,-279.98 373,-270.71 373,-262.11"/>
<polygon fill="grey" stroke="grey" stroke-width="2" points="376.5,-262.1 373,-252.1 369.5,-262.1 376.5,-262.1"/>
</g>
<!-- 5 -->
<g id="node6" class="node">
<title>5</title>
<path fill="none" stroke="#68d856" stroke-width="2" stroke-dasharray="5,2" d="M167.5,-396C167.5,-396 66.5,-396 66.5,-396 60.5,-396 54.5,-390 54.5,-384 54.5,-384 54.5,-372 54.5,-372 54.5,-366 60.5,-360 66.5,-360 66.5,-360 167.5,-360 167.5,-360 173.5,-360 179.5,-366 179.5,-372 179.5,-372 179.5,-384 179.5,-384 179.5,-390 173.5,-396 167.5,-396"/>
<text text-anchor="middle" x="117" y="-375.5" font-family="sans" font-size="10.00">extract_Gencode_UTR</text>
</g>
<!-- 5&#45;&gt;4 -->
<g id="edge7" class="edge">
<title>5&#45;&gt;4</title>
<path fill="none" stroke="grey" stroke-width="2" d="M179.3,-359.97C216.25,-349.86 263.23,-337.02 301.67,-326.51"/>
<polygon fill="grey" stroke="grey" stroke-width="2" points="303.03,-329.76 311.75,-323.75 301.18,-323.01 303.03,-329.76"/>
</g>
<!-- 6 -->
<g id="node7" class="node">
<title>6</title>
<path fill="none" stroke="#88d856" stroke-width="2" stroke-dasharray="5,2" d="M100,-468C100,-468 12,-468 12,-468 6,-468 0,-462 0,-456 0,-456 0,-444 0,-444 0,-438 6,-432 12,-432 12,-432 100,-432 100,-432 106,-432 112,-438 112,-444 112,-444 112,-456 112,-456 112,-462 106,-468 100,-468"/>
<text text-anchor="middle" x="56" y="-447.5" font-family="sans" font-size="10.00">download_Gencode</text>
</g>
<!-- 6&#45;&gt;5 -->
<g id="edge11" class="edge">
<title>6&#45;&gt;5</title>
<path fill="none" stroke="grey" stroke-width="2" d="M71.08,-431.7C78.39,-423.3 87.31,-413.07 95.34,-403.86"/>
<polygon fill="grey" stroke="grey" stroke-width="2" points="98.16,-405.94 102.09,-396.1 92.89,-401.34 98.16,-405.94"/>
</g>
<!-- 7 -->
<g id="node8" class="node">
<title>7</title>
<path fill="none" stroke="#d87556" stroke-width="2" stroke-dasharray="5,2" d="M351,-396C351,-396 271,-396 271,-396 265,-396 259,-390 259,-384 259,-384 259,-372 259,-372 259,-366 265,-360 271,-360 271,-360 351,-360 351,-360 357,-360 363,-366 363,-372 363,-372 363,-384 363,-384 363,-390 357,-396 351,-396"/>
<text text-anchor="middle" x="311" y="-375.5" font-family="sans" font-size="10.00">extract_PolyA_DB</text>
</g>
<!-- 7&#45;&gt;4 -->
<g id="edge8" class="edge">
<title>7&#45;&gt;4</title>
<path fill="none" stroke="grey" stroke-width="2" d="M326.33,-359.7C333.76,-351.3 342.82,-341.07 350.98,-331.86"/>
<polygon fill="grey" stroke="grey" stroke-width="2" points="353.84,-333.91 357.85,-324.1 348.6,-329.27 353.84,-333.91"/>
</g>
<!-- 8 -->
<g id="node9" class="node">
<title>8</title>
<path fill="none" stroke="#56d8a2" stroke-width="2" stroke-dasharray="5,2" d="M234,-468C234,-468 142,-468 142,-468 136,-468 130,-462 130,-456 130,-456 130,-444 130,-444 130,-438 136,-432 142,-432 142,-432 234,-432 234,-432 240,-432 246,-438 246,-444 246,-444 246,-456 246,-456 246,-462 240,-468 234,-468"/>
<text text-anchor="middle" x="188" y="-447.5" font-family="sans" font-size="10.00">download_PolyA_DB</text>
</g>
<!-- 8&#45;&gt;7 -->
<g id="edge12" class="edge">
<title>8&#45;&gt;7</title>
<path fill="none" stroke="grey" stroke-width="2" d="M218.09,-431.88C234.32,-422.64 254.54,-411.13 271.97,-401.21"/>
<polygon fill="grey" stroke="grey" stroke-width="2" points="273.84,-404.18 280.8,-396.19 270.37,-398.09 273.84,-404.18"/>
</g>
<!-- 9 -->
<g id="node10" class="node">
<title>9</title>
<path fill="none" stroke="#5673d8" stroke-width="2" stroke-dasharray="5,2" d="M345.5,-468C345.5,-468 276.5,-468 276.5,-468 270.5,-468 264.5,-462 264.5,-456 264.5,-456 264.5,-444 264.5,-444 264.5,-438 270.5,-432 276.5,-432 276.5,-432 345.5,-432 345.5,-432 351.5,-432 357.5,-438 357.5,-444 357.5,-444 357.5,-456 357.5,-456 357.5,-462 351.5,-468 345.5,-468"/>
<text text-anchor="middle" x="311" y="-453" font-family="sans" font-size="10.00">genomepy</text>
<text text-anchor="middle" x="311" y="-442" font-family="sans" font-size="10.00">assembly: hg19</text>
</g>
<!-- 9&#45;&gt;7 -->
<g id="edge13" class="edge">
<title>9&#45;&gt;7</title>
<path fill="none" stroke="grey" stroke-width="2" d="M311,-431.7C311,-423.98 311,-414.71 311,-406.11"/>
<polygon fill="grey" stroke="grey" stroke-width="2" points="314.5,-406.1 311,-396.1 307.5,-406.1 314.5,-406.1"/>
</g>
<!-- 10 -->
<g id="node11" class="node">
<title>10</title>
<path fill="none" stroke="#56d863" stroke-width="2" stroke-dasharray="5,2" d="M478.5,-396C478.5,-396 393.5,-396 393.5,-396 387.5,-396 381.5,-390 381.5,-384 381.5,-384 381.5,-372 381.5,-372 381.5,-366 387.5,-360 393.5,-360 393.5,-360 478.5,-360 478.5,-360 484.5,-360 490.5,-366 490.5,-372 490.5,-372 490.5,-384 490.5,-384 490.5,-390 484.5,-396 478.5,-396"/>
<text text-anchor="middle" x="436" y="-375.5" font-family="sans" font-size="10.00">extract_PolyASite2</text>
</g>
<!-- 10&#45;&gt;4 -->
<g id="edge9" class="edge">
<title>10&#45;&gt;4</title>
<path fill="none" stroke="grey" stroke-width="2" d="M420.43,-359.7C412.8,-351.22 403.48,-340.86 395.12,-331.58"/>
<polygon fill="grey" stroke="grey" stroke-width="2" points="397.69,-329.2 388.39,-324.1 392.48,-333.88 397.69,-329.2"/>
</g>
<!-- 11 -->
<g id="node12" class="node">
<title>11</title>
<path fill="none" stroke="#56d8c1" stroke-width="2" stroke-dasharray="5,2" d="M486,-468C486,-468 388,-468 388,-468 382,-468 376,-462 376,-456 376,-456 376,-444 376,-444 376,-438 382,-432 388,-432 388,-432 486,-432 486,-432 492,-432 498,-438 498,-444 498,-444 498,-456 498,-456 498,-462 492,-468 486,-468"/>
<text text-anchor="middle" x="437" y="-447.5" font-family="sans" font-size="10.00">download_PolyASite2</text>
</g>
<!-- 11&#45;&gt;10 -->
<g id="edge14" class="edge">
<title>11&#45;&gt;10</title>
<path fill="none" stroke="grey" stroke-width="2" d="M436.75,-431.7C436.64,-423.98 436.51,-414.71 436.39,-406.11"/>
<polygon fill="grey" stroke="grey" stroke-width="2" points="439.89,-406.05 436.24,-396.1 432.89,-406.15 439.89,-406.05"/>
</g>
<!-- 12 -->
<g id="node13" class="node">
<title>12</title>
<path fill="none" stroke="#5673d8" stroke-width="2" stroke-dasharray="5,2" d="M597.5,-468C597.5,-468 528.5,-468 528.5,-468 522.5,-468 516.5,-462 516.5,-456 516.5,-456 516.5,-444 516.5,-444 516.5,-438 522.5,-432 528.5,-432 528.5,-432 597.5,-432 597.5,-432 603.5,-432 609.5,-438 609.5,-444 609.5,-444 609.5,-456 609.5,-456 609.5,-462 603.5,-468 597.5,-468"/>
<text text-anchor="middle" x="563" y="-453" font-family="sans" font-size="10.00">genomepy</text>
<text text-anchor="middle" x="563" y="-442" font-family="sans" font-size="10.00">assembly: hg38</text>
</g>
<!-- 12&#45;&gt;10 -->
<g id="edge15" class="edge">
<title>12&#45;&gt;10</title>
<path fill="none" stroke="grey" stroke-width="2" d="M531.93,-431.88C515.17,-422.64 494.29,-411.13 476.3,-401.21"/>
<polygon fill="grey" stroke="grey" stroke-width="2" points="477.63,-397.95 467.19,-396.19 474.26,-404.08 477.63,-397.95"/>
</g>
<!-- 13 -->
<g id="node14" class="node">
<title>13</title>
<path fill="none" stroke="#d8d356" stroke-width="2" stroke-dasharray="5,2" d="M607,-396C607,-396 521,-396 521,-396 515,-396 509,-390 509,-384 509,-384 509,-372 509,-372 509,-366 515,-360 521,-360 521,-360 607,-360 607,-360 613,-360 619,-366 619,-372 619,-372 619,-384 619,-384 619,-390 613,-396 607,-396"/>
<text text-anchor="middle" x="564" y="-375.5" font-family="sans" font-size="10.00">download_chainfile</text>
</g>
<!-- 13&#45;&gt;4 -->
<g id="edge10" class="edge">
<title>13&#45;&gt;4</title>
<path fill="none" stroke="grey" stroke-width="2" d="M517.28,-359.88C490.7,-350.14 457.24,-337.87 429.23,-327.61"/>
<polygon fill="grey" stroke="grey" stroke-width="2" points="430.17,-324.22 419.57,-324.07 427.76,-330.8 430.17,-324.22"/>
</g>
<!-- 14&#45;&gt;0 -->
<g id="edge2" class="edge">
<title>14&#45;&gt;0</title>
<path fill="none" stroke="grey" stroke-width="2" d="M373,-71.7C373,-63.98 373,-54.71 373,-46.11"/>
<polygon fill="grey" stroke="grey" stroke-width="2" points="376.5,-46.1 373,-36.1 369.5,-46.1 376.5,-46.1"/>
</g>
<!-- 15&#45;&gt;0 -->
<g id="edge3" class="edge">
<title>15&#45;&gt;0</title>
<path fill="none" stroke="grey" stroke-width="2" d="M547.79,-71.97C504.94,-58.98 447.16,-41.47 409.98,-30.21"/>
<polygon fill="grey" stroke="grey" stroke-width="2" points="410.66,-26.75 400.07,-27.2 408.63,-33.45 410.66,-26.75"/>
</g>
</g>
</svg>
