<?xml version="1.0" encoding="UTF-8" standalone="no"?>
<!DOCTYPE svg PUBLIC "-//W3C//DTD SVG 1.1//EN"
 "http://www.w3.org/Graphics/SVG/1.1/DTD/svg11.dtd">
<!-- Generated by graphviz version 2.42.3 (20191010.1750)
 -->
<!-- Title: snakemake_dag Pages: 1 -->
<svg width="594pt" height="481pt"
 viewBox="0.00 0.00 593.50 481.00" xmlns="http://www.w3.org/2000/svg" xmlns:xlink="http://www.w3.org/1999/xlink">
<g id="graph0" class="graph" transform="scale(1 1) rotate(0) translate(4 477)">
<title>snakemake_dag</title>
<polygon fill="white" stroke="transparent" points="-4,4 -4,-477 589.5,-477 589.5,4 -4,4"/>
<!-- 0 -->
<g id="node1" class="node">
<title>0</title>
<path fill="none" stroke="#56d8a9" stroke-width="2" d="M315,-36C315,-36 285,-36 285,-36 279,-36 273,-30 273,-24 273,-24 273,-12 273,-12 273,-6 279,0 285,0 285,0 315,0 315,0 321,0 327,-6 327,-12 327,-12 327,-24 327,-24 327,-30 321,-36 315,-36"/>
<text text-anchor="middle" x="300" y="-15.5" font-family="sans" font-size="10.00">all</text>
</g>
<!-- 1 -->
<g id="node2" class="node">
<title>1</title>
<path fill="none" stroke="#567bd8" stroke-width="2" d="M315,-108C315,-108 285,-108 285,-108 279,-108 273,-102 273,-96 273,-96 273,-84 273,-84 273,-78 279,-72 285,-72 285,-72 315,-72 315,-72 321,-72 327,-78 327,-84 327,-84 327,-96 327,-96 327,-102 321,-108 315,-108"/>
<text text-anchor="middle" x="300" y="-87.5" font-family="sans" font-size="10.00">plots</text>
</g>
<!-- 1&#45;&gt;0 -->
<g id="edge1" class="edge">
<title>1&#45;&gt;0</title>
<path fill="none" stroke="grey" stroke-width="2" d="M300,-71.7C300,-63.98 300,-54.71 300,-46.11"/>
<polygon fill="grey" stroke="grey" stroke-width="2" points="303.5,-46.1 300,-36.1 296.5,-46.1 303.5,-46.1"/>
</g>
<!-- 2 -->
<g id="node3" class="node">
<title>2</title>
<path fill="none" stroke="#d87556" stroke-width="2" d="M279,-180C279,-180 203,-180 203,-180 197,-180 191,-174 191,-168 191,-168 191,-156 191,-156 191,-150 197,-144 203,-144 203,-144 279,-144 279,-144 285,-144 291,-150 291,-156 291,-156 291,-168 291,-168 291,-174 285,-180 279,-180"/>
<text text-anchor="middle" x="241" y="-165" font-family="sans" font-size="10.00">gather_MAPS</text>
<text text-anchor="middle" x="241" y="-154" font-family="sans" font-size="10.00">run_location: gcp</text>
</g>
<!-- 2&#45;&gt;1 -->
<g id="edge2" class="edge">
<title>2&#45;&gt;1</title>
<path fill="none" stroke="grey" stroke-width="2" d="M255.58,-143.7C262.66,-135.3 271.28,-125.07 279.05,-115.86"/>
<polygon fill="grey" stroke="grey" stroke-width="2" points="281.81,-118.01 285.58,-108.1 276.46,-113.49 281.81,-118.01"/>
</g>
<!-- 3 -->
<g id="node4" class="node">
<title>3</title>
<path fill="none" stroke="#88d856" stroke-width="2" d="M162,-257C162,-257 12,-257 12,-257 6,-257 0,-251 0,-245 0,-245 0,-228 0,-228 0,-222 6,-216 12,-216 12,-216 162,-216 162,-216 168,-216 174,-222 174,-228 174,-228 174,-245 174,-245 174,-251 168,-257 162,-257"/>
<text text-anchor="middle" x="87" y="-245" font-family="sans" font-size="10.00">MAPS_GCP</text>
<text text-anchor="middle" x="87" y="-234" font-family="sans" font-size="10.00">chr_subset: chr22</text>
<text text-anchor="middle" x="87" y="-223" font-family="sans" font-size="10.00">variant_subset: PolyADB&#45;overall</text>
</g>
<!-- 3&#45;&gt;2 -->
<g id="edge6" class="edge">
<title>3&#45;&gt;2</title>
<path fill="none" stroke="grey" stroke-width="2" d="M128.67,-215.88C149.39,-206.13 174.47,-194.32 195.66,-184.34"/>
<polygon fill="grey" stroke="grey" stroke-width="2" points="197.24,-187.47 204.79,-180.05 194.25,-181.14 197.24,-187.47"/>
</g>
<!-- 14 -->
<g id="node15" class="node">
<title>14</title>
<path fill="none" stroke="#d8bc56" stroke-width="2" d="M149,-180C149,-180 73,-180 73,-180 67,-180 61,-174 61,-168 61,-168 61,-156 61,-156 61,-150 67,-144 73,-144 73,-144 149,-144 149,-144 155,-144 161,-150 161,-156 161,-156 161,-168 161,-168 161,-174 155,-180 149,-180"/>
<text text-anchor="middle" x="111" y="-165" font-family="sans" font-size="10.00">plot_single</text>
<text text-anchor="middle" x="111" y="-154" font-family="sans" font-size="10.00">run_location: gcp</text>
</g>
<!-- 3&#45;&gt;14 -->
<g id="edge21" class="edge">
<title>3&#45;&gt;14</title>
<path fill="none" stroke="grey" stroke-width="2" d="M93.56,-215.69C96.19,-207.73 99.27,-198.44 102.1,-189.89"/>
<polygon fill="grey" stroke="grey" stroke-width="2" points="105.45,-190.91 105.27,-180.32 98.8,-188.71 105.45,-190.91"/>
</g>
<!-- 4 -->
<g id="node5" class="node">
<title>4</title>
<path fill="none" stroke="#56c1d8" stroke-width="2" stroke-dasharray="5,2" d="M193,-329C193,-329 95,-329 95,-329 89,-329 83,-323 83,-317 83,-317 83,-305 83,-305 83,-299 89,-293 95,-293 95,-293 193,-293 193,-293 199,-293 205,-299 205,-305 205,-305 205,-317 205,-317 205,-323 199,-329 193,-329"/>
<text text-anchor="middle" x="144" y="-314" font-family="sans" font-size="10.00">merge_UTR_intervals</text>
<text text-anchor="middle" x="144" y="-303" font-family="sans" font-size="10.00">annotation: overall</text>
</g>
<!-- 4&#45;&gt;3 -->
<g id="edge9" class="edge">
<title>4&#45;&gt;3</title>
<path fill="none" stroke="grey" stroke-width="2" d="M130.49,-292.82C123.97,-284.53 115.99,-274.38 108.65,-265.04"/>
<polygon fill="grey" stroke="grey" stroke-width="2" points="111.36,-262.82 102.43,-257.12 105.85,-267.14 111.36,-262.82"/>
</g>
<!-- 5 -->
<g id="node6" class="node">
<title>5</title>
<path fill="none" stroke="#ced856" stroke-width="2" stroke-dasharray="5,2" d="M267.5,-401C267.5,-401 166.5,-401 166.5,-401 160.5,-401 154.5,-395 154.5,-389 154.5,-389 154.5,-377 154.5,-377 154.5,-371 160.5,-365 166.5,-365 166.5,-365 267.5,-365 267.5,-365 273.5,-365 279.5,-371 279.5,-377 279.5,-377 279.5,-389 279.5,-389 279.5,-395 273.5,-401 267.5,-401"/>
<text text-anchor="middle" x="217" y="-380.5" font-family="sans" font-size="10.00">extract_Gencode_UTR</text>
</g>
<!-- 5&#45;&gt;4 -->
<g id="edge10" class="edge">
<title>5&#45;&gt;4</title>
<path fill="none" stroke="grey" stroke-width="2" d="M198.96,-364.7C189.94,-356.05 178.88,-345.45 169.06,-336.03"/>
<polygon fill="grey" stroke="grey" stroke-width="2" points="171.48,-333.5 161.84,-329.1 166.63,-338.55 171.48,-333.5"/>
</g>
<!-- 11 -->
<g id="node12" class="node">
<title>11</title>
<path fill="none" stroke="#56c1d8" stroke-width="2" stroke-dasharray="5,2" d="M333,-329C333,-329 235,-329 235,-329 229,-329 223,-323 223,-317 223,-317 223,-305 223,-305 223,-299 229,-293 235,-293 235,-293 333,-293 333,-293 339,-293 345,-299 345,-305 345,-305 345,-317 345,-317 345,-323 339,-329 333,-329"/>
<text text-anchor="middle" x="284" y="-314" font-family="sans" font-size="10.00">merge_UTR_intervals</text>
<text text-anchor="middle" x="284" y="-303" font-family="sans" font-size="10.00">annotation: hexamer</text>
</g>
<!-- 5&#45;&gt;11 -->
<g id="edge16" class="edge">
<title>5&#45;&gt;11</title>
<path fill="none" stroke="grey" stroke-width="2" d="M233.56,-364.7C241.68,-356.22 251.59,-345.86 260.47,-336.58"/>
<polygon fill="grey" stroke="grey" stroke-width="2" points="263.24,-338.75 267.63,-329.1 258.19,-333.91 263.24,-338.75"/>
</g>
<!-- 13 -->
<g id="node14" class="node">
<title>13</title>
<path fill="none" stroke="#56c1d8" stroke-width="2" stroke-dasharray="5,2" d="M476.5,-329C476.5,-329 375.5,-329 375.5,-329 369.5,-329 363.5,-323 363.5,-317 363.5,-317 363.5,-305 363.5,-305 363.5,-299 369.5,-293 375.5,-293 375.5,-293 476.5,-293 476.5,-293 482.5,-293 488.5,-299 488.5,-305 488.5,-305 488.5,-317 488.5,-317 488.5,-323 482.5,-329 476.5,-329"/>
<text text-anchor="middle" x="426" y="-314" font-family="sans" font-size="10.00">merge_UTR_intervals</text>
<text text-anchor="middle" x="426" y="-303" font-family="sans" font-size="10.00">annotation: conserved</text>
</g>
<!-- 5&#45;&gt;13 -->
<g id="edge19" class="edge">
<title>5&#45;&gt;13</title>
<path fill="none" stroke="grey" stroke-width="2" d="M267.86,-364.97C297.19,-355.14 334.25,-342.73 365.12,-332.39"/>
<polygon fill="grey" stroke="grey" stroke-width="2" points="366.54,-335.61 374.91,-329.11 364.32,-328.97 366.54,-335.61"/>
</g>
<!-- 6 -->
<g id="node7" class="node">
<title>6</title>
<path fill="none" stroke="#d89c56" stroke-width="2" stroke-dasharray="5,2" d="M261,-473C261,-473 173,-473 173,-473 167,-473 161,-467 161,-461 161,-461 161,-449 161,-449 161,-443 167,-437 173,-437 173,-437 261,-437 261,-437 267,-437 273,-443 273,-449 273,-449 273,-461 273,-461 273,-467 267,-473 261,-473"/>
<text text-anchor="middle" x="217" y="-452.5" font-family="sans" font-size="10.00">download_Gencode</text>
</g>
<!-- 6&#45;&gt;5 -->
<g id="edge12" class="edge">
<title>6&#45;&gt;5</title>
<path fill="none" stroke="grey" stroke-width="2" d="M217,-436.7C217,-428.98 217,-419.71 217,-411.11"/>
<polygon fill="grey" stroke="grey" stroke-width="2" points="220.5,-411.1 217,-401.1 213.5,-411.1 220.5,-411.1"/>
</g>
<!-- 7 -->
<g id="node8" class="node">
<title>7</title>
<path fill="none" stroke="#d85656" stroke-width="2" stroke-dasharray="5,2" d="M390,-401C390,-401 310,-401 310,-401 304,-401 298,-395 298,-389 298,-389 298,-377 298,-377 298,-371 304,-365 310,-365 310,-365 390,-365 390,-365 396,-365 402,-371 402,-377 402,-377 402,-389 402,-389 402,-395 396,-401 390,-401"/>
<text text-anchor="middle" x="350" y="-380.5" font-family="sans" font-size="10.00">extract_PolyA_DB</text>
</g>
<!-- 7&#45;&gt;4 -->
<g id="edge11" class="edge">
<title>7&#45;&gt;4</title>
<path fill="none" stroke="grey" stroke-width="2" d="M299.87,-364.97C270.96,-355.14 234.43,-342.73 204,-332.39"/>
<polygon fill="grey" stroke="grey" stroke-width="2" points="204.95,-329.01 194.35,-329.11 202.7,-335.64 204.95,-329.01"/>
</g>
<!-- 7&#45;&gt;11 -->
<g id="edge17" class="edge">
<title>7&#45;&gt;11</title>
<path fill="none" stroke="grey" stroke-width="2" d="M333.69,-364.7C325.69,-356.22 315.93,-345.86 307.18,-336.58"/>
<polygon fill="grey" stroke="grey" stroke-width="2" points="309.53,-333.98 300.13,-329.1 304.44,-338.78 309.53,-333.98"/>
</g>
<!-- 7&#45;&gt;13 -->
<g id="edge20" class="edge">
<title>7&#45;&gt;13</title>
<path fill="none" stroke="grey" stroke-width="2" d="M368.79,-364.7C378.17,-356.05 389.68,-345.45 399.91,-336.03"/>
<polygon fill="grey" stroke="grey" stroke-width="2" points="402.45,-338.45 407.43,-329.1 397.7,-333.3 402.45,-338.45"/>
</g>
<!-- 8 -->
<g id="node9" class="node">
<title>8</title>
<path fill="none" stroke="#56d8d0" stroke-width="2" stroke-dasharray="5,2" d="M513,-473C513,-473 421,-473 421,-473 415,-473 409,-467 409,-461 409,-461 409,-449 409,-449 409,-443 415,-437 421,-437 421,-437 513,-437 513,-437 519,-437 525,-443 525,-449 525,-449 525,-461 525,-461 525,-467 519,-473 513,-473"/>
<text text-anchor="middle" x="467" y="-452.5" font-family="sans" font-size="10.00">download_PolyA_DB</text>
</g>
<!-- 8&#45;&gt;7 -->
<g id="edge13" class="edge">
<title>8&#45;&gt;7</title>
<path fill="none" stroke="grey" stroke-width="2" d="M438.38,-436.88C423.08,-427.72 404.06,-416.34 387.58,-406.48"/>
<polygon fill="grey" stroke="grey" stroke-width="2" points="389.11,-403.32 378.73,-401.19 385.52,-409.33 389.11,-403.32"/>
</g>
<!-- 9 -->
<g id="node10" class="node">
<title>9</title>
<path fill="none" stroke="#68d856" stroke-width="2" stroke-dasharray="5,2" d="M378.5,-473C378.5,-473 309.5,-473 309.5,-473 303.5,-473 297.5,-467 297.5,-461 297.5,-461 297.5,-449 297.5,-449 297.5,-443 303.5,-437 309.5,-437 309.5,-437 378.5,-437 378.5,-437 384.5,-437 390.5,-443 390.5,-449 390.5,-449 390.5,-461 390.5,-461 390.5,-467 384.5,-473 378.5,-473"/>
<text text-anchor="middle" x="344" y="-458" font-family="sans" font-size="10.00">genomepy</text>
<text text-anchor="middle" x="344" y="-447" font-family="sans" font-size="10.00">assembly: hg19</text>
</g>
<!-- 9&#45;&gt;7 -->
<g id="edge14" class="edge">
<title>9&#45;&gt;7</title>
<path fill="none" stroke="grey" stroke-width="2" d="M345.48,-436.7C346.14,-428.98 346.94,-419.71 347.68,-411.11"/>
<polygon fill="grey" stroke="grey" stroke-width="2" points="351.17,-411.37 348.53,-401.1 344.19,-410.77 351.17,-411.37"/>
</g>
<!-- 10 -->
<g id="node11" class="node">
<title>10</title>
<path fill="none" stroke="#88d856" stroke-width="2" d="M364,-257C364,-257 204,-257 204,-257 198,-257 192,-251 192,-245 192,-245 192,-228 192,-228 192,-222 198,-216 204,-216 204,-216 364,-216 364,-216 370,-216 376,-222 376,-228 376,-228 376,-245 376,-245 376,-251 370,-257 364,-257"/>
<text text-anchor="middle" x="284" y="-245" font-family="sans" font-size="10.00">MAPS_GCP</text>
<text text-anchor="middle" x="284" y="-234" font-family="sans" font-size="10.00">chr_subset: chr22</text>
<text text-anchor="middle" x="284" y="-223" font-family="sans" font-size="10.00">variant_subset: PolyADB&#45;hexamer</text>
</g>
<!-- 10&#45;&gt;2 -->
<g id="edge7" class="edge">
<title>10&#45;&gt;2</title>
<path fill="none" stroke="grey" stroke-width="2" d="M272.25,-215.69C267.38,-207.47 261.66,-197.83 256.45,-189.05"/>
<polygon fill="grey" stroke="grey" stroke-width="2" points="259.38,-187.14 251.27,-180.32 253.36,-190.71 259.38,-187.14"/>
</g>
<!-- 15 -->
<g id="node16" class="node">
<title>15</title>
<path fill="none" stroke="#d8bc56" stroke-width="2" d="M397,-180C397,-180 321,-180 321,-180 315,-180 309,-174 309,-168 309,-168 309,-156 309,-156 309,-150 315,-144 321,-144 321,-144 397,-144 397,-144 403,-144 409,-150 409,-156 409,-156 409,-168 409,-168 409,-174 403,-180 397,-180"/>
<text text-anchor="middle" x="359" y="-165" font-family="sans" font-size="10.00">plot_single</text>
<text text-anchor="middle" x="359" y="-154" font-family="sans" font-size="10.00">run_location: gcp</text>
</g>
<!-- 10&#45;&gt;15 -->
<g id="edge22" class="edge">
<title>10&#45;&gt;15</title>
<path fill="none" stroke="grey" stroke-width="2" d="M304.49,-215.69C313.53,-206.96 324.23,-196.61 333.76,-187.4"/>
<polygon fill="grey" stroke="grey" stroke-width="2" points="336.33,-189.79 341.08,-180.32 331.46,-184.75 336.33,-189.79"/>
</g>
<!-- 11&#45;&gt;10 -->
<g id="edge15" class="edge">
<title>11&#45;&gt;10</title>
<path fill="none" stroke="grey" stroke-width="2" d="M284,-292.82C284,-285.2 284,-276 284,-267.32"/>
<polygon fill="grey" stroke="grey" stroke-width="2" points="287.5,-267.12 284,-257.12 280.5,-267.12 287.5,-267.12"/>
</g>
<!-- 12 -->
<g id="node13" class="node">
<title>12</title>
<path fill="none" stroke="#88d856" stroke-width="2" d="M573.5,-257C573.5,-257 406.5,-257 406.5,-257 400.5,-257 394.5,-251 394.5,-245 394.5,-245 394.5,-228 394.5,-228 394.5,-222 400.5,-216 406.5,-216 406.5,-216 573.5,-216 573.5,-216 579.5,-216 585.5,-222 585.5,-228 585.5,-228 585.5,-245 585.5,-245 585.5,-251 579.5,-257 573.5,-257"/>
<text text-anchor="middle" x="490" y="-245" font-family="sans" font-size="10.00">MAPS_GCP</text>
<text text-anchor="middle" x="490" y="-234" font-family="sans" font-size="10.00">chr_subset: chr22</text>
<text text-anchor="middle" x="490" y="-223" font-family="sans" font-size="10.00">variant_subset: PolyADB&#45;conserved</text>
</g>
<!-- 12&#45;&gt;2 -->
<g id="edge8" class="edge">
<title>12&#45;&gt;2</title>
<path fill="none" stroke="grey" stroke-width="2" d="M422.95,-215.98C384.86,-204.89 337.6,-191.13 300.79,-180.41"/>
<polygon fill="grey" stroke="grey" stroke-width="2" points="301.76,-177.05 291.18,-177.61 299.81,-183.77 301.76,-177.05"/>
</g>
<!-- 16 -->
<g id="node17" class="node">
<title>16</title>
<path fill="none" stroke="#d8bc56" stroke-width="2" d="M521,-180C521,-180 445,-180 445,-180 439,-180 433,-174 433,-168 433,-168 433,-156 433,-156 433,-150 439,-144 445,-144 445,-144 521,-144 521,-144 527,-144 533,-150 533,-156 533,-156 533,-168 533,-168 533,-174 527,-180 521,-180"/>
<text text-anchor="middle" x="483" y="-165" font-family="sans" font-size="10.00">plot_single</text>
<text text-anchor="middle" x="483" y="-154" font-family="sans" font-size="10.00">run_location: gcp</text>
</g>
<!-- 12&#45;&gt;16 -->
<g id="edge23" class="edge">
<title>12&#45;&gt;16</title>
<path fill="none" stroke="grey" stroke-width="2" d="M488.09,-215.69C487.34,-207.91 486.46,-198.84 485.65,-190.45"/>
<polygon fill="grey" stroke="grey" stroke-width="2" points="489.12,-189.94 484.67,-180.32 482.15,-190.61 489.12,-189.94"/>
</g>
<!-- 13&#45;&gt;12 -->
<g id="edge18" class="edge">
<title>13&#45;&gt;12</title>
<path fill="none" stroke="grey" stroke-width="2" d="M441.17,-292.82C448.56,-284.44 457.63,-274.17 465.94,-264.76"/>
<polygon fill="grey" stroke="grey" stroke-width="2" points="468.69,-266.93 472.68,-257.12 463.44,-262.3 468.69,-266.93"/>
</g>
<!-- 14&#45;&gt;1 -->
<g id="edge3" class="edge">
<title>14&#45;&gt;1</title>
<path fill="none" stroke="grey" stroke-width="2" d="M157.23,-143.88C189.83,-131.8 232.9,-115.85 263.18,-104.64"/>
<polygon fill="grey" stroke="grey" stroke-width="2" points="264.76,-107.78 272.92,-101.03 262.33,-101.22 264.76,-107.78"/>
</g>
<!-- 15&#45;&gt;1 -->
<g id="edge4" class="edge">
<title>15&#45;&gt;1</title>
<path fill="none" stroke="grey" stroke-width="2" d="M344.42,-143.7C337.34,-135.3 328.72,-125.07 320.95,-115.86"/>
<polygon fill="grey" stroke="grey" stroke-width="2" points="323.54,-113.49 314.42,-108.1 318.19,-118.01 323.54,-113.49"/>
</g>
<!-- 16&#45;&gt;1 -->
<g id="edge5" class="edge">
<title>16&#45;&gt;1</title>
<path fill="none" stroke="grey" stroke-width="2" d="M438.23,-143.88C406.96,-131.91 365.72,-116.14 336.45,-104.94"/>
<polygon fill="grey" stroke="grey" stroke-width="2" points="337.6,-101.64 327.01,-101.33 335.1,-108.17 337.6,-101.64"/>
</g>
</g>
</svg>
