<?xml version="1.0" encoding="UTF-8" standalone="no"?>
<!DOCTYPE svg PUBLIC "-//W3C//DTD SVG 1.1//EN"
 "http://www.w3.org/Graphics/SVG/1.1/DTD/svg11.dtd">
<!-- Generated by graphviz version 2.42.3 (20191010.1750)
 -->
<!-- Title: snakemake_dag Pages: 1 -->
<svg width="395pt" height="404pt"
 viewBox="0.00 0.00 394.50 404.00" xmlns="http://www.w3.org/2000/svg" xmlns:xlink="http://www.w3.org/1999/xlink">
<g id="graph0" class="graph" transform="scale(1 1) rotate(0) translate(4 400)">
<title>snakemake_dag</title>
<polygon fill="white" stroke="transparent" points="-4,4 -4,-400 390.5,-400 390.5,4 -4,4"/>
<!-- 0 -->
<g id="node1" class="node">
<title>0</title>
<path fill="none" stroke="#d8a456" stroke-width="2" d="M293,-36C293,-36 263,-36 263,-36 257,-36 251,-30 251,-24 251,-24 251,-12 251,-12 251,-6 257,0 263,0 263,0 293,0 293,0 299,0 305,-6 305,-12 305,-12 305,-24 305,-24 305,-30 299,-36 293,-36"/>
<text text-anchor="middle" x="278" y="-15.5" font-family="sans" font-size="10.00">all</text>
</g>
<!-- 1 -->
<g id="node2" class="node">
<title>1</title>
<path fill="none" stroke="#56a9d8" stroke-width="2" d="M293,-108C293,-108 263,-108 263,-108 257,-108 251,-102 251,-96 251,-96 251,-84 251,-84 251,-78 257,-72 263,-72 263,-72 293,-72 293,-72 299,-72 305,-78 305,-84 305,-84 305,-96 305,-96 305,-102 299,-108 293,-108"/>
<text text-anchor="middle" x="278" y="-87.5" font-family="sans" font-size="10.00">plots</text>
</g>
<!-- 1&#45;&gt;0 -->
<g id="edge1" class="edge">
<title>1&#45;&gt;0</title>
<path fill="none" stroke="grey" stroke-width="2" d="M278,-71.7C278,-63.98 278,-54.71 278,-46.11"/>
<polygon fill="grey" stroke="grey" stroke-width="2" points="281.5,-46.1 278,-36.1 274.5,-46.1 281.5,-46.1"/>
</g>
<!-- 2 -->
<g id="node3" class="node">
<title>2</title>
<path fill="none" stroke="#d8cb56" stroke-width="2" d="M302,-180C302,-180 254,-180 254,-180 248,-180 242,-174 242,-168 242,-168 242,-156 242,-156 242,-150 248,-144 254,-144 254,-144 302,-144 302,-144 308,-144 314,-150 314,-156 314,-156 314,-168 314,-168 314,-174 308,-180 302,-180"/>
<text text-anchor="middle" x="278" y="-159.5" font-family="sans" font-size="10.00">MAPS_local</text>
</g>
<!-- 2&#45;&gt;1 -->
<g id="edge2" class="edge">
<title>2&#45;&gt;1</title>
<path fill="none" stroke="grey" stroke-width="2" d="M278,-143.7C278,-135.98 278,-126.71 278,-118.11"/>
<polygon fill="grey" stroke="grey" stroke-width="2" points="281.5,-118.1 278,-108.1 274.5,-118.1 281.5,-118.1"/>
</g>
<!-- 3 -->
<g id="node4" class="node">
<title>3</title>
<path fill="none" stroke="#d85656" stroke-width="2" d="M255,-252C255,-252 187,-252 187,-252 181,-252 175,-246 175,-240 175,-240 175,-228 175,-228 175,-222 181,-216 187,-216 187,-216 255,-216 255,-216 261,-216 267,-222 267,-228 267,-228 267,-240 267,-240 267,-246 261,-252 255,-252"/>
<text text-anchor="middle" x="221" y="-231.5" font-family="sans" font-size="10.00">convert_bedfile</text>
</g>
<!-- 3&#45;&gt;2 -->
<g id="edge3" class="edge">
<title>3&#45;&gt;2</title>
<path fill="none" stroke="grey" stroke-width="2" d="M235.09,-215.7C241.92,-207.3 250.26,-197.07 257.76,-187.86"/>
<polygon fill="grey" stroke="grey" stroke-width="2" points="260.47,-190.07 264.07,-180.1 255.04,-185.65 260.47,-190.07"/>
</g>
<!-- 4 -->
<g id="node5" class="node">
<title>4</title>
<path fill="none" stroke="#8fd856" stroke-width="2" d="M195,-324C195,-324 115,-324 115,-324 109,-324 103,-318 103,-312 103,-312 103,-300 103,-300 103,-294 109,-288 115,-288 115,-288 195,-288 195,-288 201,-288 207,-294 207,-300 207,-300 207,-312 207,-312 207,-318 201,-324 195,-324"/>
<text text-anchor="middle" x="155" y="-303.5" font-family="sans" font-size="10.00">extract_PolyA_DB</text>
</g>
<!-- 4&#45;&gt;3 -->
<g id="edge5" class="edge">
<title>4&#45;&gt;3</title>
<path fill="none" stroke="grey" stroke-width="2" d="M171.31,-287.7C179.31,-279.22 189.07,-268.86 197.82,-259.58"/>
<polygon fill="grey" stroke="grey" stroke-width="2" points="200.56,-261.78 204.87,-252.1 195.47,-256.98 200.56,-261.78"/>
</g>
<!-- 5 -->
<g id="node6" class="node">
<title>5</title>
<path fill="none" stroke="#56d86b" stroke-width="2" d="M104,-396C104,-396 12,-396 12,-396 6,-396 0,-390 0,-384 0,-384 0,-372 0,-372 0,-366 6,-360 12,-360 12,-360 104,-360 104,-360 110,-360 116,-366 116,-372 116,-372 116,-384 116,-384 116,-390 110,-396 104,-396"/>
<text text-anchor="middle" x="58" y="-375.5" font-family="sans" font-size="10.00">download_PolyA_DB</text>
</g>
<!-- 5&#45;&gt;4 -->
<g id="edge8" class="edge">
<title>5&#45;&gt;4</title>
<path fill="none" stroke="grey" stroke-width="2" d="M81.98,-359.7C94.31,-350.8 109.52,-339.82 122.85,-330.2"/>
<polygon fill="grey" stroke="grey" stroke-width="2" points="125.24,-332.79 131.3,-324.1 121.14,-327.12 125.24,-332.79"/>
</g>
<!-- 6 -->
<g id="node7" class="node">
<title>6</title>
<path fill="none" stroke="#d87d56" stroke-width="2" d="M190,-396C190,-396 146,-396 146,-396 140,-396 134,-390 134,-384 134,-384 134,-372 134,-372 134,-366 140,-360 146,-360 146,-360 190,-360 190,-360 196,-360 202,-366 202,-372 202,-372 202,-384 202,-384 202,-390 196,-396 190,-396"/>
<text text-anchor="middle" x="168" y="-375.5" font-family="sans" font-size="10.00">genomepy</text>
</g>
<!-- 6&#45;&gt;4 -->
<g id="edge7" class="edge">
<title>6&#45;&gt;4</title>
<path fill="none" stroke="grey" stroke-width="2" d="M164.79,-359.7C163.35,-351.98 161.63,-342.71 160.04,-334.11"/>
<polygon fill="grey" stroke="grey" stroke-width="2" points="163.44,-333.3 158.18,-324.1 156.56,-334.58 163.44,-333.3"/>
</g>
<!-- 7 -->
<g id="node8" class="node">
<title>7</title>
<path fill="none" stroke="#56d8b9" stroke-width="2" d="M374.5,-252C374.5,-252 297.5,-252 297.5,-252 291.5,-252 285.5,-246 285.5,-240 285.5,-240 285.5,-228 285.5,-228 285.5,-222 291.5,-216 297.5,-216 297.5,-216 374.5,-216 374.5,-216 380.5,-216 386.5,-222 386.5,-228 386.5,-228 386.5,-240 386.5,-240 386.5,-246 380.5,-252 374.5,-252"/>
<text text-anchor="middle" x="336" y="-231.5" font-family="sans" font-size="10.00">prepare_gnomAD</text>
</g>
<!-- 7&#45;&gt;2 -->
<g id="edge4" class="edge">
<title>7&#45;&gt;2</title>
<path fill="none" stroke="grey" stroke-width="2" d="M321.66,-215.7C314.71,-207.3 306.23,-197.07 298.6,-187.86"/>
<polygon fill="grey" stroke="grey" stroke-width="2" points="301.25,-185.57 292.17,-180.1 295.86,-190.04 301.25,-185.57"/>
</g>
<!-- 8 -->
<g id="node9" class="node">
<title>8</title>
<path fill="none" stroke="#56d892" stroke-width="2" d="M338.5,-324C338.5,-324 237.5,-324 237.5,-324 231.5,-324 225.5,-318 225.5,-312 225.5,-312 225.5,-300 225.5,-300 225.5,-294 231.5,-288 237.5,-288 237.5,-288 338.5,-288 338.5,-288 344.5,-288 350.5,-294 350.5,-300 350.5,-300 350.5,-312 350.5,-312 350.5,-318 344.5,-324 338.5,-324"/>
<text text-anchor="middle" x="288" y="-303.5" font-family="sans" font-size="10.00">extract_Gencode_UTR</text>
</g>
<!-- 8&#45;&gt;3 -->
<g id="edge6" class="edge">
<title>8&#45;&gt;3</title>
<path fill="none" stroke="grey" stroke-width="2" d="M271.44,-287.7C263.32,-279.22 253.41,-268.86 244.53,-259.58"/>
<polygon fill="grey" stroke="grey" stroke-width="2" points="246.81,-256.91 237.37,-252.1 241.76,-261.75 246.81,-256.91"/>
</g>
<!-- 9 -->
<g id="node10" class="node">
<title>9</title>
<path fill="none" stroke="#b6d856" stroke-width="2" d="M332,-396C332,-396 244,-396 244,-396 238,-396 232,-390 232,-384 232,-384 232,-372 232,-372 232,-366 238,-360 244,-360 244,-360 332,-360 332,-360 338,-360 344,-366 344,-372 344,-372 344,-384 344,-384 344,-390 338,-396 332,-396"/>
<text text-anchor="middle" x="288" y="-375.5" font-family="sans" font-size="10.00">download_Gencode</text>
</g>
<!-- 9&#45;&gt;8 -->
<g id="edge9" class="edge">
<title>9&#45;&gt;8</title>
<path fill="none" stroke="grey" stroke-width="2" d="M288,-359.7C288,-351.98 288,-342.71 288,-334.11"/>
<polygon fill="grey" stroke="grey" stroke-width="2" points="291.5,-334.1 288,-324.1 284.5,-334.1 291.5,-334.1"/>
</g>
</g>
</svg>
